<svg width="60" height="60" viewBox="0 0 60 60" fill="none" xmlns="http://www.w3.org/2000/svg">
<path d="M28.3477 2.39893C28.3477 2.39893 27.3164 2.9251 26.2734 3.70791C25.7578 4.09814 25.2305 4.554 24.7969 5.09775C24.3633 5.6415 23.9766 6.3165 24.0352 7.15088C24.0938 8.13994 24.7734 8.88291 25.4531 9.30713C26.1445 9.73252 26.8828 9.98096 27.5742 10.2247C28.2656 10.4685 28.8984 10.7087 29.2617 10.9396C29.6133 11.1704 29.6484 11.2313 29.6602 11.42C29.6602 11.42 29.6133 11.5981 29.3672 11.8712C29.1211 12.129 28.7109 12.4454 28.2891 12.7149C27.4336 13.2423 26.5547 13.6056 26.5547 13.6056L27.3516 15.5509C27.3516 15.5509 28.3711 15.1407 29.4023 14.4845C29.918 14.1681 30.457 13.7813 30.9023 13.3009C31.3594 12.8087 31.7695 12.1759 31.7461 11.3638C31.7227 10.3724 31.0547 9.59893 30.3867 9.16768C29.707 8.73643 28.9688 8.48799 28.2773 8.24424C27.5859 7.99932 26.9414 7.75908 26.5664 7.52353C26.1914 7.28799 26.1328 7.19775 26.1211 7.01025C26.1211 6.96221 26.1797 6.72783 26.4375 6.40322C26.6953 6.07861 27.1055 5.70713 27.5391 5.38135C28.4062 4.72861 29.3086 4.26221 29.3086 4.26221L28.3477 2.39893ZM15.2227 4.5083C15.2227 4.5083 14.1914 5.03447 13.1484 5.81729C12.6328 6.20752 12.1055 6.66338 11.6719 7.20713C11.2383 7.75088 10.8516 8.42588 10.9102 9.26025C10.9688 10.2493 11.6484 10.9923 12.3281 11.4165C13.0195 11.836 13.7578 12.0938 14.4492 12.3282C15.1406 12.5743 15.7734 12.8087 16.1367 13.0431C16.4883 13.2774 16.5234 13.336 16.5352 13.5235V13.5353C16.5352 13.5353 16.4883 13.711 16.2422 13.9806C15.9961 14.2384 15.5859 14.5548 15.1641 14.8243C14.3086 15.3517 13.4297 15.7149 13.4297 15.7149L14.2266 17.6603C14.2266 17.6603 15.2461 17.2501 16.2773 16.5938C16.793 16.2774 17.332 15.8907 17.7773 15.4103C18.2344 14.9181 18.6445 14.2853 18.6211 13.4767C18.5977 12.4806 17.9297 11.7118 17.2617 11.2806C16.582 10.8493 15.8438 10.6009 15.1523 10.3571C14.4609 10.1122 13.8164 9.87197 13.4414 9.63643C13.0664 9.40088 13.0078 9.31064 12.9961 9.12314C12.9961 9.0751 13.0547 8.84072 13.3125 8.51611C13.5703 8.1915 13.9805 7.82002 14.4141 7.49424C15.2812 6.8415 16.1836 6.3751 16.1836 6.3751L15.2227 4.5083ZM40.7695 4.5083C40.7695 4.5083 39.7383 5.03447 38.6953 5.81729C38.1797 6.20752 37.6523 6.66338 37.2188 7.20713C36.7852 7.75088 36.3984 8.42588 36.457 9.26025C36.5156 10.2493 37.1953 10.9923 37.875 11.4165C38.5664 11.836 39.3047 12.0938 39.9961 12.3282C40.6875 12.5743 41.3203 12.8087 41.6836 13.0431C42.0352 13.2774 42.0703 13.336 42.082 13.5235V13.5353C42.082 13.5353 42.0352 13.711 41.7891 13.9806C41.543 14.2384 41.1328 14.5548 40.7109 14.8243C39.8555 15.3517 38.9766 15.7149 38.9766 15.7149L39.7734 17.6603C39.7734 17.6603 40.793 17.2501 41.8242 16.5938C42.3398 16.2774 42.8789 15.8907 43.3242 15.4103C43.7812 14.9181 44.1914 14.2853 44.168 13.4767C44.1445 12.4806 43.4766 11.7118 42.8086 11.2806C42.1289 10.8493 41.3906 10.6009 40.6992 10.3571C40.0078 10.1122 39.3633 9.87197 38.9883 9.63643C38.6133 9.40088 38.5547 9.31064 38.543 9.12314C38.543 9.0751 38.6016 8.84072 38.8594 8.51611C39.1172 8.1915 39.5273 7.82002 39.9609 7.49424C40.8281 6.8415 41.7305 6.3751 41.7305 6.3751L40.7695 4.5083ZM5.39062 19.8634V21.9493H56.7188V19.8634H5.39062ZM5.56758 24.0587C6.22734 30.879 13.1953 40.7228 26.9531 40.7228C40.7109 40.7228 47.6836 30.879 48.3398 24.0587H5.56758ZM14.332 39.7149L12.5039 48.2462C13.3359 48.3282 14.1328 48.5978 14.8242 48.9962L16.582 40.8048C15.7969 40.4767 15.0469 40.1134 14.332 39.7149ZM39.5742 39.7149C38.8594 40.1134 38.1094 40.4767 37.3242 40.8048L40.9219 57.5743C41.5078 57.5509 42.4922 57.5157 42.7969 57.4103C43.0078 57.3399 43.1016 57.2696 43.1484 57.211C43.1836 57.1524 43.2305 57.0587 43.2422 56.836L39.5742 39.7149ZM11.9531 50.3087C9.92578 50.3087 8.31445 51.9259 8.31445 53.9532C8.31445 55.9806 9.92578 57.5978 11.9531 57.5978C13.9805 57.5978 15.5977 55.9806 15.5977 53.9532C15.5977 51.9259 13.9805 50.3087 11.9531 50.3087ZM17.543 52.6759C17.6367 53.086 17.6836 53.5196 17.6836 53.9532C17.6836 54.2228 17.6602 54.4923 17.625 54.7618H38.1797L37.7344 52.6759H17.543Z" fill="#3D3D3D"/>
</svg>
