<svg width="60" height="60" viewBox="0 0 60 60" fill="none" xmlns="http://www.w3.org/2000/svg">
<path d="M30 11.25C35.425 11.25 36.45 12.675 38.75 15.8C39.7 17.125 40.8 18.6 42.35 20.15C43.575 21.375 44.65 22.325 45.525 23.1C48.25 25.475 48.75 25.9 48.75 30C48.75 37.325 48.75 38.45 44.85 42.35C40 47.15 38.45 48.75 32.5 48.75C29.7 48.75 28.75 47.95 27.225 46.725C25.675 45.475 23.575 43.75 20 43.75C12.4 43.75 11.25 35.125 11.25 30C11.25 26.625 12.5 22.275 16.175 21.05C20.625 19.575 23 16.775 24.9 14.525C26.875 12.2 27.775 11.25 30 11.25ZM30 7.5C22.5 7.5 22.5 15 15 17.5C9.7 19.275 7.5 25 7.5 30C7.5 37.5 10 47.5 20 47.5C25 47.5 25 52.5 32.5 52.5C40 52.5 42.5 50 47.5 45C52.5 40 52.5 37.5 52.5 30C52.5 22.5 50 22.5 45 17.5C40 12.5 40 7.5 30 7.5ZM30 20C24.475 20 20 24.475 20 30C20 35.525 24.475 40 30 40C35.525 40 40 35.525 40 30C40 24.475 35.525 20 30 20ZM30 25C27.25 25 25 27.25 25 30H22.5C22.5 25.875 25.875 22.5 30 22.5V25Z" fill="#3D3D3D"/>
</svg>
