<svg width="60" height="60" viewBox="0 0 60 60" fill="none" xmlns="http://www.w3.org/2000/svg">
<path d="M56 32C56 33.0609 55.5786 34.0783 54.8284 34.8284C54.0783 35.5786 53.0609 36 52 36H8C6.93913 36 5.92172 35.5786 5.17157 34.8284C4.42143 34.0783 4 33.0609 4 32C4 30.9391 4.42143 29.9217 5.17157 29.1716C5.92172 28.4214 6.93913 28 8 28H52C53.0609 28 54.0783 28.4214 54.8284 29.1716C55.5786 29.9217 56 30.9391 56 32ZM14 40H8C8 43.1826 9.26428 46.2348 11.5147 48.4853C13.7652 50.7357 16.8174 52 20 52H40C43.1826 52 46.2348 50.7357 48.4853 48.4853C50.7357 46.2348 52 43.1826 52 40H14ZM12 24H8V16C8 13.8783 8.84285 11.8434 10.3431 10.3431C11.8434 8.84285 13.8783 8 16 8H44C46.1217 8 48.1566 8.84285 49.6569 10.3431C51.1571 11.8434 52 13.8783 52 16V24H12ZM44 18C44 18.5304 44.2107 19.0391 44.5858 19.4142C44.9609 19.7893 45.4696 20 46 20C46.5304 20 47.0391 19.7893 47.4142 19.4142C47.7893 19.0391 48 18.5304 48 18C48 17.4696 47.7893 16.9609 47.4142 16.5858C47.0391 16.2107 46.5304 16 46 16C45.4696 16 44.9609 16.2107 44.5858 16.5858C44.2107 16.9609 44 17.4696 44 18ZM36 14C36 14.5304 36.2107 15.0391 36.5858 15.4142C36.9609 15.7893 37.4696 16 38 16C38.5304 16 39.0391 15.7893 39.4142 15.4142C39.7893 15.0391 40 14.5304 40 14C40 13.4696 39.7893 12.9609 39.4142 12.5858C39.0391 12.2107 38.5304 12 38 12C37.4696 12 36.9609 12.2107 36.5858 12.5858C36.2107 12.9609 36 13.4696 36 14ZM28 18C28 18.5304 28.2107 19.0391 28.5858 19.4142C28.9609 19.7893 29.4696 20 30 20C30.5304 20 31.0391 19.7893 31.4142 19.4142C31.7893 19.0391 32 18.5304 32 18C32 17.4696 31.7893 16.9609 31.4142 16.5858C31.0391 16.2107 30.5304 16 30 16C29.4696 16 28.9609 16.2107 28.5858 16.5858C28.2107 16.9609 28 17.4696 28 18ZM20 14C20 14.5304 20.2107 15.0391 20.5858 15.4142C20.9609 15.7893 21.4696 16 22 16C22.5304 16 23.0391 15.7893 23.4142 15.4142C23.7893 15.0391 24 14.5304 24 14C24 13.4696 23.7893 12.9609 23.4142 12.5858C23.0391 12.2107 22.5304 12 22 12C21.4696 12 20.9609 12.2107 20.5858 12.5858C20.2107 12.9609 20 13.4696 20 14ZM12 18C12 18.5304 12.2107 19.0391 12.5858 19.4142C12.9609 19.7893 13.4696 20 14 20C14.5304 20 15.0391 19.7893 15.4142 19.4142C15.7893 19.0391 16 18.5304 16 18C16 17.4696 15.7893 16.9609 15.4142 16.5858C15.0391 16.2107 14.5304 16 14 16C13.4696 16 12.9609 16.2107 12.5858 16.5858C12.2107 16.9609 12 17.4696 12 18Z" fill="#3D3D3D"/>
</svg>
