<svg width="60" height="60" viewBox="0 0 60 60" fill="none" xmlns="http://www.w3.org/2000/svg">
<path d="M32.6762 4L30.908 21.6589H33.0252L34.7701 4.20926L32.6762 4ZM42.0408 5.63336L36.7012 21.6589H38.8882L44.0184 6.29601L42.0408 5.63336ZM13.9819 22.4262L5 33.1913L6.60769 34.5398L14.5286 25.0419L14.0866 22.9261L13.9819 22.4262ZM46.0193 22.4262L45.4725 25.0419L53.3946 34.5398L54.1973 33.8655L55 33.1913L46.0193 22.4262ZM17.0646 23.7515L23.1138 32.8193H36.8873L42.9365 23.7515H17.0646ZM24.4167 27.2391H35.5844V29.3316H24.4167V27.2391ZM17.2508 27.8087L22.2297 51.4198H37.7715L42.7504 27.8087L38.0041 34.9118H21.997L17.2508 27.8087ZM22.6718 53.5124L23.4046 57H36.5965L37.3294 53.5124H22.6718Z" fill="#3D3D3D"/>
</svg>
