<svg width="60" height="60" viewBox="0 0 60 60" fill="none" xmlns="http://www.w3.org/2000/svg">
<path d="M9.3878 26.871V39.2483C9.38748 40.8736 9.70767 42.483 10.3301 43.9846C10.9525 45.4863 11.865 46.8508 13.0153 48.0002C14.1657 49.1495 15.5315 50.0613 17.0346 50.6833C18.5378 51.3053 20.1489 51.6255 21.7759 51.6255H30.7835C32.4105 51.6255 34.0216 51.3053 35.5248 50.6833C37.0279 50.0613 38.3937 49.1495 39.5441 48.0002C40.6945 46.8508 41.6069 45.4863 42.2293 43.9846C42.8518 42.483 43.1719 40.8736 43.1716 39.2483V26.8735L9.3878 26.871ZM35.1219 6.45032C35.4656 6.73783 35.6809 7.14994 35.7204 7.596C35.7599 8.04207 35.6204 8.48554 35.3326 8.82886C33.7599 10.7009 33.412 11.9782 33.8971 12.8347C34.0489 13.1014 35.3497 15.1545 35.6486 15.7883C36.3247 17.2198 36.4129 18.6073 35.8299 20.2468C35.4011 21.4244 34.7794 22.5226 33.9901 23.4965H43.4974C44.568 23.5357 45.3445 23.8073 45.8246 24.3163C46.0941 24.5953 46.2852 24.9477 46.4052 25.3734L46.5522 25.3685C48.7927 25.3685 50.9414 26.2576 52.5257 27.8402C54.11 29.4227 55 31.5692 55 33.8072C55 36.0453 54.11 38.1917 52.5257 39.7743C50.9414 41.3568 48.7927 42.2459 46.5522 42.2459L46.268 42.2361C45.5728 45.8286 43.6474 49.0673 40.8224 51.3963C37.9973 53.7253 34.4488 54.9995 30.7859 55H21.7735C19.7028 55 17.6524 54.5926 15.7394 53.8009C13.8264 53.0093 12.0882 51.849 10.6242 50.3863C9.16011 48.9236 7.99883 47.1871 7.20664 45.276C6.41446 43.3649 6.00689 41.3167 6.00721 39.2483V26.4599C5.95822 25.4004 6.15909 24.6491 6.60494 24.2086C7.05323 23.7682 7.71465 23.5308 8.58674 23.499H15.8207C15.9149 23.3421 16.0341 23.2016 16.1735 23.083C17.6678 21.8179 18.6428 20.4964 19.1327 19.1188C19.412 18.3357 19.3801 17.8708 19.0788 17.2321C18.8877 16.8259 17.6849 14.9269 17.4449 14.5011C16.1245 12.1715 16.852 9.49936 19.2282 6.66566C19.368 6.48727 19.5422 6.33879 19.7406 6.22905C19.939 6.11932 20.1574 6.05059 20.3829 6.02694C20.6085 6.00328 20.8364 6.0252 21.0533 6.09139C21.2702 6.15757 21.4715 6.26666 21.6453 6.41217C21.8191 6.55768 21.9618 6.73664 22.0649 6.93838C22.168 7.14012 22.2294 7.36052 22.2455 7.58647C22.2616 7.81241 22.232 8.03928 22.1584 8.25356C22.0849 8.46784 21.969 8.66515 21.8176 8.83375C20.2449 10.7058 19.8995 11.9831 20.3845 12.8396C20.5339 13.1063 21.8372 15.1594 22.136 15.7932C22.8097 17.2247 22.9003 18.6122 22.3149 20.2517C21.8868 21.4291 21.2659 22.5273 20.4776 23.5014H22.5794C22.6737 23.3446 22.7928 23.2041 22.9322 23.0854C24.4241 21.8179 25.399 20.4964 25.889 19.1188C26.1682 18.3357 26.1389 17.8708 25.8351 17.2321C25.644 16.8259 24.4412 14.9269 24.2011 14.5011C22.8808 12.1715 23.6083 9.49936 25.987 6.66566C26.1255 6.48388 26.2995 6.33208 26.4985 6.21945C26.6975 6.10682 26.9173 6.0357 27.1446 6.01039C27.3719 5.98508 27.602 6.00612 27.8209 6.07223C28.0399 6.13833 28.2431 6.24813 28.4183 6.39497C28.5935 6.54182 28.737 6.72265 28.8403 6.92653C28.9435 7.13041 29.0042 7.35309 29.0187 7.5811C29.0333 7.8091 29.0013 8.03767 28.9249 8.25299C28.8484 8.46831 28.729 8.66588 28.5739 8.83375C27.0036 10.7058 26.6557 11.9831 27.1408 12.8396C27.2927 13.1063 28.5935 15.1594 28.8923 15.7932C29.5684 17.2247 29.6566 18.6122 29.0711 20.2517C28.6431 21.4291 28.0222 22.5273 27.2339 23.5014H29.3382C29.4316 23.3448 29.5499 23.2043 29.6885 23.0854C31.1828 21.8179 32.1553 20.4964 32.6453 19.1188C32.9245 18.3357 32.8951 17.8708 32.5914 17.2321C32.4003 16.8259 31.1999 14.9269 30.9574 14.5011C29.6395 12.1715 30.3646 9.49936 32.7432 6.66566C33.031 6.32307 33.4431 6.1085 33.889 6.06905C34.335 6.02959 34.7784 6.16847 35.1219 6.45521M46.5498 28.7479V38.8739C47.894 38.8739 49.1832 38.3405 50.1337 37.391C51.0842 36.4415 51.6182 35.1537 51.6182 33.8109C51.6182 32.4681 51.0842 31.1803 50.1337 30.2308C49.1832 29.2814 47.894 28.7479 46.5498 28.7479Z" fill="#3D3D3D"/>
</svg>
