<svg width="60" height="60" viewBox="0 0 60 60" fill="none" xmlns="http://www.w3.org/2000/svg">
<path d="M38.7501 5C40.0398 4.99987 41.3135 5.2848 42.4801 5.83441C43.6468 6.38403 44.6775 7.18473 45.4986 8.17922C46.3196 9.17371 46.9107 10.3374 47.2295 11.587C47.5483 12.8366 47.5869 14.1412 47.3426 15.4075L47.3051 15.5725C49.4801 16.298 51.3816 17.6705 52.7552 19.5062C54.1288 21.342 54.909 23.5535 54.9914 25.8448C55.0738 28.1361 54.4544 30.3979 53.2162 32.3275C51.9779 34.2572 50.1799 35.7627 48.0626 36.6425L45.3476 52.91C45.2506 53.4938 44.9496 54.0242 44.4982 54.4069C44.0469 54.7896 43.4744 54.9997 42.8826 55H17.1176C16.5259 54.9997 15.9534 54.7896 15.502 54.4069C15.0507 54.0242 14.7497 53.4938 14.6526 52.91L12.0801 37.485C10.35 37.3869 8.70715 36.6926 7.43096 35.5202C6.15477 34.3478 5.32395 32.7696 5.07974 31.054C4.83553 29.3383 5.19299 27.591 6.09135 26.109C6.98972 24.6271 8.37356 23.502 10.0076 22.925L10.0001 22.5C9.99965 19.9686 10.6398 17.4783 11.8609 15.261C13.0821 13.0436 14.8445 11.1714 16.9841 9.81864C19.1236 8.46587 21.5708 7.67657 24.0976 7.52425C26.6243 7.37193 29.1486 7.86155 31.4351 8.9475C32.2309 7.73396 33.3162 6.73765 34.5933 6.04848C35.8704 5.35932 37.299 4.99898 38.7501 5ZM22.5001 37.5H17.1501L19.2351 50H22.5001V37.5ZM32.5001 37.5H27.5001V50H32.5001V37.5ZM42.8476 37.5H37.5001V50H40.7626L42.8476 37.5ZM25.0001 12.5C19.6451 12.5 15.2726 16.71 15.0126 21.9175L15.0001 22.41L15.0076 22.835C15.0253 23.8167 14.7536 24.7819 14.2263 25.6101C13.699 26.4384 12.9396 27.0931 12.0426 27.4925L11.6676 27.64C11.1125 27.8377 10.645 28.2249 10.3473 28.7334C10.0497 29.242 9.94102 29.8392 10.0405 30.42C10.14 31.0008 10.4412 31.5279 10.8912 31.9084C11.3411 32.2889 11.9109 32.4984 12.5001 32.5H43.7501C44.6742 32.5 45.5868 32.2951 46.4221 31.9C47.2575 31.505 47.9949 30.9296 48.5811 30.2153C49.1674 29.501 49.588 28.6657 49.8126 27.7693C50.0373 26.873 50.0603 25.938 49.8802 25.0316C49.7001 24.1253 49.3212 23.2702 48.7709 22.5279C48.2205 21.7855 47.5125 21.1745 46.6976 20.7387C45.8828 20.3029 44.9814 20.0532 44.0585 20.0076C43.1355 19.962 42.214 20.1216 41.3601 20.475L40.9226 20.6775C39.7691 21.2719 38.4296 21.3946 37.1872 21.0195C35.9449 20.6444 34.897 19.801 34.2651 18.6675L34.0901 18.325C33.2912 16.5861 32.01 15.1129 30.3988 14.0804C28.7875 13.0479 26.9138 12.4994 25.0001 12.5ZM38.7501 10C38.1021 9.99987 37.465 10.1677 36.9011 10.4871C36.3372 10.8065 35.8657 11.2666 35.5326 11.8225C36.8235 13.0935 37.8738 14.5875 38.6326 16.2325C39.764 15.6511 40.9868 15.2681 42.2476 15.1C42.4668 14.532 42.5444 13.9191 42.4737 13.3144C42.403 12.7097 42.186 12.1312 41.8417 11.6291C41.4974 11.127 41.0359 10.7163 40.4973 10.4324C39.9586 10.1486 39.359 10.0002 38.7501 10Z" fill="#3D3D3D"/>
</svg>
