<svg width="60" height="60" viewBox="0 0 60 60" fill="none" xmlns="http://www.w3.org/2000/svg">
<path fill-rule="evenodd" clip-rule="evenodd" d="M39.0352 5L37.5227 10.8L37.6077 9.5375L30.0002 13.1763V8.31L21.2502 10.9875V15.5125L19.0377 7.25875L12.0352 13.805L15.0852 25.1838C15.2289 25.2587 15.3639 25.355 15.4814 25.4688C16.5189 26.4725 17.5177 27.3837 18.4814 28.205L14.8389 14.6063L17.7014 11.9313L21.2514 25.165V30.3662C22.1052 30.9688 22.9364 31.4912 23.7514 31.9287V12.8375L27.5014 11.6912V33.4C28.4502 33.6225 29.3889 33.7238 30.3277 33.7013L31.5852 15.1888L34.8227 13.6388L33.4964 33.1688C34.5688 32.8269 35.6023 32.3736 36.5802 31.8162L39.4889 20.9575L43.0389 19.8925L40.5889 29.0325C41.7661 28.0661 42.9021 27.0506 43.9939 25.9888L46.6777 15.9713L44.4689 16.5363L47.9314 5H39.0352ZM44.5702 7.5L41.6427 17.26L38.1902 18.1425L40.9652 7.5H44.5702Z" fill="#3D3D3D"/>
<path fill-rule="evenodd" clip-rule="evenodd" d="M44.4862 28.9613C39.5462 33.4988 34.9849 36.2138 30.0574 36.2063C25.1274 36.1988 20.5262 33.4638 15.5099 28.9213L18.4574 52.5H41.5437L44.4862 28.9613ZM14.3362 25C13.3612 25 12.6074 25.855 12.7274 26.8225L15.9774 52.81C16.0529 53.4143 16.3465 53.9703 16.8029 54.3735C17.2593 54.7768 17.8472 54.9995 18.4562 55H41.5424C42.1517 54.9998 42.7399 54.7772 43.1965 54.3739C43.6532 53.9707 43.9469 53.4145 44.0224 52.81L47.2724 26.8163C47.3153 26.4807 47.2518 26.1402 47.0909 25.8426C46.9301 25.5451 46.6799 25.3055 46.3756 25.1577C46.0714 25.0098 45.7284 24.9612 45.3951 25.0185C45.0617 25.0759 44.7547 25.2364 44.5174 25.4775C33.3424 36.4725 26.8187 36.4275 15.4799 25.4688C15.1736 25.1713 14.7644 25.0034 14.3374 25" fill="#3D3D3D"/>
</svg>
