<svg width="60" height="60" viewBox="0 0 60 60" fill="none" xmlns="http://www.w3.org/2000/svg">
<path d="M54.6523 6.87704L54.6556 6.89287C54.3281 6.17788 53.2756 5.70705 51.0381 6.28121C50.0739 6.52787 48.8323 7.07453 47.8323 8.26452C40.4806 0.649608 29.7857 7.68119 17.4082 15.8219C16.3732 16.5003 15.3366 17.1836 14.3033 17.8536C5.47079 23.5918 4.72412 31.7784 5.06329 36.1492C5.44579 41.0466 7.53661 45.9316 10.6541 49.2157C13.7708 52.499 18.3566 54.6482 22.9174 54.9615C26.9865 55.2357 34.5857 54.269 39.7465 44.6583C40.3542 43.5262 40.9653 42.3959 41.5798 41.2675C48.0339 29.3909 53.7106 18.9394 49.9973 11.3228L50.6856 10.8795C51.8171 10.2258 52.9963 9.65837 54.2131 9.18201C55.6748 8.60702 54.6523 6.87704 54.6523 6.87704ZM33.3715 38.4292C26.2907 51.6199 17.6016 53.8632 11.8941 47.8532C6.18995 41.8408 3.68996 27.8085 15.8149 19.9294C27.9365 12.052 40.2423 2.93208 46.6723 9.70534C53.0998 16.4778 40.4498 25.2352 33.3715 38.4292Z" fill="#3D3D3D"/>
<path d="M16.1511 25.6772C10.5186 31.8582 11.2114 40.7325 14.7055 42.4407C18.2239 44.1929 23.3718 41.4572 27.2052 37.3229C30.9721 33.1182 33.4105 27.5297 31.7136 23.7816C30.0552 20.0616 21.7902 19.4972 16.1511 25.6772ZM20.0849 28.2432C19.7521 29.1075 18.3711 31.1597 17.6089 33.0047C16.7661 34.8375 16.2824 36.4294 15.3439 37.0285C14.3839 37.7738 13.1568 35.6522 15.5436 31.8825C17.9755 28.2769 20.5396 27.3741 20.0849 28.2432Z" fill="#3D3D3D"/>
</svg>
