<svg width="60" height="60" viewBox="0 0 60 60" fill="none" xmlns="http://www.w3.org/2000/svg">
<path d="M48 37.5V36H49.1248C51.8168 36 54 33.9072 54 32.2496C54 32.2496 52.5 33 50.2496 33C47.772 33 44.2496 31.6568 44.2496 30V24H45.3744C48.0664 24 50.2496 21.9072 50.2496 20.2496C50.2496 20.2496 48.7496 21 46.4992 21C44.0216 21 40.4992 19.6568 40.4992 18V12H41.624C44.316 12 46.4992 9.9064 46.4992 8.2496C46.4992 8.2496 44.9992 9 42.7488 9C40.2712 9 36.7488 7.6568 36.7488 6H23.2496C23.2496 7.6568 19.7272 9 17.2496 9C14.9992 9 13.4992 8.2496 13.4992 8.2496C13.4992 9.9064 15.6824 12 18.3744 12H19.4992V18C19.4992 19.6568 15.9768 21 13.4992 21C11.2488 21 9.7488 20.2496 9.7488 20.2496C9.7488 21.9064 11.932 24 14.624 24H15.7488V30C15.7488 31.6568 12.2264 33 9.7488 33C7.5 33 6 32.2504 6 32.2504C6 33.9072 8.1832 36 10.8752 36H12V42L6 54H54L48 42V37.5ZM48.6088 44.8776L48.9704 45.5712H47.188L48.428 47.6528H50.0544L50.4152 48.348H44.9048L46.0664 50.4296H51.4984L51.8608 51.1232H49.7824L48.4272 53.552H47.7048L49.0592 51.1232H44.0008L42.6464 53.552H41.924L43.2784 51.1232H36.9552L38.3104 53.552H37.588L36.2328 51.1232H31.1752L32.5288 53.552H31.8072L30.452 51.1232H25.3936L26.748 53.552H26.0256L24.6712 51.1232H20.8776L19.5224 53.552H18.8008L20.1544 51.1232H14.3728L13.0184 53.552H12.2944L13.6488 51.1232H8.1384L8.5008 50.4296H10.94L12.1008 48.348H9.584L9.9448 47.6528H14.4616L13.2224 45.5712H11.0296L11.3912 44.8776H14.4624L15.9088 42.4488H16.6304L15.1848 44.8776H21.6888L20.244 42.4488H20.9656L22.4112 44.8776H27.4704L26.024 42.4488H26.7464L28.192 44.8776H31.8064L33.252 42.4488H33.9744L32.528 44.8776H37.5872L39.0328 42.4488H39.7544L38.3096 44.8776H44.8144L43.368 42.4488H44.0896L45.536 44.8776H48.6088ZM26.6072 10.3128C27.452 9.64 27.9832 8.6248 30 8.6248C32.02 8.6248 32.4712 9.6032 33.3928 10.312C35.5848 11.9992 37.3528 11.9928 37.636 11.9992H22.3632C22.6464 11.9936 24.4824 12 26.6072 10.3128ZM20.2504 13.5H25.5008V16.5H27.0008V13.5H29.2512V16.5H30.7512V13.5H33.0016V16.5H34.5016V13.5H39.752V18H20.2504V13.5ZM30 19.5744L36.084 24H23.916L30 19.5744ZM18 25.5V28.5H19.5V25.5H24V28.5H24.7504V25.5H26.2504V28.5H27.0008V25.5H28.5008V28.5H29.2512V25.5H30.7512V28.5H31.5016V25.5H33.0016V28.5H33.752V25.5H35.252V28.5H36V25.5H40.5V28.5H42V25.5H43.5V29.9008H16.5V25.5H18ZM24.6664 33.7504C25.9976 32.8544 26.8312 31.5 30 31.5C33.1744 31.5 33.8832 32.8056 35.3336 33.7504C38.7784 36 41.5544 35.9912 42 36H18C18.4456 35.9912 21.3296 36 24.6664 33.7504ZM14.2504 37.5V40.5H15.7504V37.5H20.6256V40.5H21.376V37.5H22.876V40.5H23.6264V37.5H25.1264V40.5H25.8768V37.5H27.3768V40.5H28.1272V37.5H29.6272V40.5H30.3776V37.5H31.8776V40.5H32.628V37.5H34.128V40.5H34.8784V37.5H36.3784V40.5H37.1288V37.5H38.6288V40.5H39.3792V37.5H44.2544V40.5H45.7544V37.5H47.2544V41.5256H12.7504V37.5H14.2504Z" fill="#3D3D3D"/>
<path d="M9.87102 51.5016L8.50977 53.9401H15.9198L14.5585 51.5016H9.87102ZM17.7198 50.686L16.2676 48.2476H11.1863L12.6385 50.686H17.7198ZM31.2695 50.686L29.8182 48.2476H24.2532L22.801 50.686H31.2695ZM21.9554 50.686L23.4066 48.2476H17.1151L18.5682 50.686H21.9554ZM43.127 50.686H50.7488L49.2966 48.2476H44.5791L43.127 50.686ZM42.2804 50.686L43.7316 48.2476H36.5926L38.0448 50.686H42.2804ZM37.1991 50.686L35.747 48.2476H30.6657L32.1179 50.686H37.1991ZM40.8123 51.5016L42.1735 53.9401H47.9823L46.621 51.5016H40.8123ZM35.2782 51.5016L33.917 53.9401H41.327L39.9657 51.5016H35.2782ZM21.3348 51.5016L22.696 53.9401H26.2951L27.6573 51.5016H21.3348ZM15.407 51.5016L16.7682 53.9401H21.8495L20.4882 51.5016H15.407ZM28.5029 51.5016L27.1416 53.9401H33.0695L34.4316 51.5016H28.5029Z" fill="#3D3D3D"/>
</svg>
