<svg width="60" height="60" viewBox="0 0 60 60" fill="none" xmlns="http://www.w3.org/2000/svg">
<path d="M28.9453 1.875V4.58672C29.2969 4.57734 29.6484 4.57031 30 4.57031C30.3516 4.57031 30.7031 4.57734 31.0547 4.58672V1.875H28.9453ZM30 6.67969C25.4531 6.67969 21.3398 7.59609 18.4219 8.71875C16.9687 9.28008 15.8086 9.89766 15.0586 10.4344C14.4023 10.9113 14.2266 11.3402 14.1914 11.2711L15 16.6406C17.9648 17.4141 20.6602 17.3672 23.2852 16.8633L23.6836 18.9258C21.0703 19.4414 18.3047 19.5352 15.3398 18.8906L17.9883 36.5508C19.4414 37.1367 21.3516 37.2539 22.9922 37.2891L22.9453 39.3984C21.6094 39.375 19.9453 39.3281 18.3398 38.8945L18.6797 41.1797C19.2422 41.4258 20.3086 41.7422 21.3516 41.918C22.6875 42.1289 24.1406 42.1758 24.4805 42.1289L24.7852 44.2148C23.8359 44.3555 22.4883 44.2383 21.0117 43.9922C20.332 43.8867 19.6641 43.7695 19.043 43.5938L19.7578 48.3398C20.0039 48.6797 21.1875 49.4062 23.0273 49.8281C24.9609 50.2734 27.4805 50.5078 30 50.5078C32.5195 50.5078 35.0391 50.2734 36.9727 49.8281C38.8125 49.4062 39.9961 48.6797 40.2422 48.3398L40.6523 45.6211C39.8672 45.9141 39.0352 46.1367 38.2031 46.2891C36.3281 46.6406 34.5 46.6875 33.1641 46.418L33.5625 44.3555C34.4531 44.5195 36.1758 44.5195 37.8164 44.2148C39.0234 43.9922 40.1953 43.582 41.0273 43.0898L43.043 29.6836C37.3945 31.7109 33.3398 31.4766 29.4492 31.3945L29.4961 29.2852C33.7148 29.3789 37.5117 29.6602 43.4062 27.3047L45.3164 14.543C40.5117 16.9336 34.2305 16.9805 28.8398 16.5117L29.0273 14.4023C34.8398 14.9297 41.5312 14.625 45.7148 11.8828L45.8086 11.2711C45.7734 11.3402 45.5977 10.9113 44.9414 10.4344C44.1914 9.89766 43.0312 9.28008 41.5781 8.71875C38.6602 7.59609 34.5469 6.67969 30 6.67969ZM21.0703 23.6719C21.7617 23.8359 23.7187 24 25.7109 24.0352C27.7031 24.0586 29.8359 23.9766 31.043 23.7773L31.3711 25.8633C29.8945 26.0977 27.75 26.168 25.6875 26.1445C23.6133 26.1094 21.7266 26.0039 20.5781 25.7344L21.0703 23.6719ZM38.2383 35.8945L38.5664 36.9023L38.8945 37.9102C35.4609 39.0234 30.9141 39.3398 27.668 38.6953L27.8672 37.6641L28.0664 36.6328C30.7969 37.1602 35.25 36.8672 38.2383 35.8945ZM28.9453 52.6055V58.125H31.0547V52.6055C30.7031 52.6172 30.3516 52.6172 30 52.6172C29.6484 52.6172 29.2969 52.6172 28.9453 52.6055Z" fill="#3D3D3D"/>
</svg>
