<svg width="60" height="60" viewBox="0 0 60 60" fill="none" xmlns="http://www.w3.org/2000/svg">
<path d="M10 41.25V20H7.5V17.5H10V15H7.5V12.5H10V10H7.5V7.5H22.5C23.75 7.575 24.875 8.1 25.85 9.075C26.825 10.05 27.375 11.25 27.5 12.5H52.5V15H27.5C27.375 16.325 26.825 17.5 25.85 18.575C24.875 19.65 23.75 20.125 22.5 20H17.5V37.625C17.625 37.625 17.825 37.6 18.1 37.5C18.375 37.4 18.6 37.5 18.75 37.5C20.15 37.5 21.75 37.85 23.55 38.55C24.575 36.25 26.325 34.2 28.825 32.5C31.325 30.8 33.825 30 36.325 30C40.15 30 43.4 31.325 46.05 33.975C48.7 36.625 50 39.875 50 43.75V44.425C50 44.75 49.925 44.925 49.925 45H7.85C8.175 43.75 8.875 42.5 10 41.25ZM15 38.075V20H12.5V39.25C13.75 38.625 14.525 38.25 15 38.075ZM22.5 17.5V15H17.5V17.5H22.5ZM22.5 10H17.5V12.5H22.5V10ZM12.5 10V12.5H15V10H12.5ZM12.5 15V17.5H15V15H12.5ZM5 47.5H55L50 52.5H10L5 47.5Z" fill="#3D3D3D"/>
</svg>
