<svg width="60" height="60" viewBox="0 0 60 60" fill="none" xmlns="http://www.w3.org/2000/svg">
<path d="M58.1203 42.7594C58.0444 20.6719 39.2822 1.95 17.1488 1.87969L15.7838 1.875L15.4556 3.20063L2.56687 55.3256L1.875 58.125L4.67344 57.4275L56.8031 44.4516L58.125 44.1216L58.1203 42.7594ZM32.0728 48.8175C31.2778 46.6884 29.4872 44.8969 26.7956 45.5794C24.5728 46.1419 23.0747 48.7303 23.6719 50.9081L4.25437 55.7419L15.585 9.915C33.2194 12.5906 47.3963 26.7638 50.0775 44.3353L32.0728 48.8175Z" fill="#3D3D3D"/>
<path d="M13.9914 38.0645C14.7 38.067 15.4022 37.9291 16.0572 37.6588C16.7123 37.3884 17.3073 36.991 17.808 36.4895C18.3093 35.99 18.7068 35.3964 18.9776 34.7426C19.2484 34.0889 19.3871 33.388 19.3858 32.6804C19.387 31.9732 19.2483 31.2728 18.9775 30.6195C18.7067 29.9662 18.3092 29.373 17.808 28.8741C17.4039 28.4719 16.6942 28.4701 16.292 28.8741C16.092 29.075 15.9797 29.3469 15.9799 29.6304C15.98 29.9139 16.0926 30.1857 16.293 30.3863C16.9052 30.9966 17.2436 31.8141 17.2436 32.6813C17.2436 33.5485 16.908 34.3651 16.2948 34.9754C15.0648 36.1998 12.918 36.1998 11.6927 34.9773C11.4893 34.7811 11.2177 34.6715 10.9351 34.6715C10.6526 34.6715 10.381 34.7811 10.1777 34.9773C10.0784 35.0764 9.99971 35.1942 9.94604 35.3238C9.89237 35.4534 9.86479 35.5923 9.86488 35.7326C9.86496 35.8729 9.89272 36.0118 9.94655 36.1413C10.0004 36.2709 10.0792 36.3885 10.1786 36.4876C10.6783 36.9894 11.2726 37.3872 11.9271 37.6578C12.5815 37.9285 13.2832 38.0667 13.9914 38.0645ZM29.5511 23.6082C29.3933 24.2738 29.3892 24.9666 29.5389 25.6341C29.7302 26.4814 30.1558 27.2578 30.7671 27.8748C31.3785 28.4917 32.151 28.9244 32.9964 29.1235C33.247 29.1809 33.5101 29.1368 33.7282 29.0008C33.9464 28.8648 34.1019 28.6481 34.1608 28.3979C34.2106 28.1482 34.1632 27.889 34.0281 27.6732C33.893 27.4574 33.6805 27.3015 33.4342 27.2373C32.0551 26.9176 31.1139 25.4363 31.4401 24.0451C31.6009 23.3574 32.0281 22.7616 32.628 22.3888C33.2278 22.0159 33.9511 21.8964 34.6389 22.0566C34.8911 22.1148 35.1527 22.0726 35.3711 21.9348C35.5905 21.7979 35.7452 21.5832 35.8014 21.3301C35.8342 21.1895 35.8361 21.0441 35.8052 20.9026C35.7646 20.7247 35.675 20.5618 35.5466 20.4322C35.4182 20.3026 35.2561 20.2116 35.0786 20.1694C34.4895 20.0308 33.8787 20.0108 33.2817 20.1104C32.6848 20.21 32.1136 20.4274 31.6014 20.7498C31.087 21.0662 30.6408 21.482 30.2887 21.9728C29.9367 22.4635 29.686 23.0195 29.5511 23.6082ZM38.103 40.0866C37.4766 39.9167 36.8201 39.8901 36.182 40.0088C35.3739 40.1591 34.6243 40.5337 34.0189 41.0897C33.4135 41.6457 32.9767 42.3608 32.7583 43.1532C32.7272 43.2694 32.7194 43.3906 32.7352 43.5099C32.751 43.6291 32.7902 43.7441 32.8504 43.8482C32.9107 43.9523 32.9908 44.0436 33.0863 44.1167C33.1818 44.1898 33.2908 44.2434 33.407 44.2745C33.6416 44.3314 33.8891 44.2961 34.0984 44.1759C34.3077 44.0557 34.4629 43.8598 34.532 43.6285C34.8817 42.3385 36.317 41.5023 37.622 41.8566C37.9422 41.9417 38.2423 42.0896 38.505 42.2915C38.7676 42.4935 38.9876 42.7456 39.152 43.0332C39.4867 43.6163 39.5767 44.2941 39.4014 44.9419C39.3606 45.0916 39.3586 45.2493 39.3955 45.4C39.4325 45.5506 39.5072 45.6895 39.6126 45.8033C39.718 45.9172 39.8506 46.0023 39.998 46.0507C40.1455 46.0991 40.3028 46.1092 40.4552 46.0801C40.6254 46.0484 40.7833 45.9696 40.9109 45.8526C41.0386 45.7356 41.1308 45.5851 41.177 45.4182C41.327 44.8668 41.3661 44.2912 41.2923 43.7247C41.2184 43.1581 41.033 42.6117 40.7467 42.1173C40.4616 41.6213 40.0813 41.1865 39.6276 40.838C39.1738 40.4895 38.6557 40.2342 38.103 40.0866ZM34.547 33.3263C33.3311 29.7676 29.4273 27.8504 25.817 29.0438C22.2086 30.2391 20.2642 34.0951 21.4764 37.6501C22.6895 41.2145 26.5951 43.1279 30.2083 41.9326C33.8111 40.7401 35.7555 36.8841 34.547 33.3263ZM37.5002 36.587C38.2286 38.7235 40.5761 39.8757 42.7502 39.1576C44.9158 38.4376 46.0811 36.1238 45.3573 33.9854C44.627 31.8488 42.2777 30.6966 40.113 31.411C37.9436 32.131 36.7755 34.4457 37.5002 36.587ZM16.8142 21.9338C17.8098 24.8466 21.0048 26.4132 23.958 25.4335C26.9045 24.4566 28.4964 21.3019 27.5073 18.3929C26.5108 15.4857 23.3186 13.9191 20.3655 14.8951C17.4198 15.8701 15.828 19.0248 16.8142 21.9338ZM19.3211 42.7332C18.2936 39.7369 15.003 38.1216 11.9636 39.122C8.93171 40.1316 7.2939 43.3763 8.31109 46.3707C9.33015 49.3763 12.618 50.986 15.6658 49.9791C18.6995 48.9713 20.3364 45.7266 19.3211 42.7332Z" fill="#3D3D3D"/>
</svg>
