<svg width="60" height="60" viewBox="0 0 60 60" fill="none" xmlns="http://www.w3.org/2000/svg">
<path d="M52.5 33.696C52.5 31.209 50.901 28.9567 48.207 27.1905C48.012 26.487 47.685 25.809 47.2425 25.1625C47.5119 24.5361 47.6737 23.8687 47.721 23.1885C49.464 21.6405 50.4607 19.8225 50.4607 17.8597C50.4608 12.0503 41.7622 7.5 30.657 7.5C19.7933 7.5 11.2372 11.856 10.8712 17.4847C9.12975 19.032 8.1345 20.847 8.1345 22.8082C8.1345 24.0742 8.5485 25.2802 9.309 26.3918C8.98471 27.1349 8.81624 27.9367 8.814 28.7475C8.814 30.8062 9.9105 32.7045 11.8147 34.2998C9.09675 36.054 7.5 38.2343 7.5 40.623C7.5 41.6325 7.7895 42.6037 8.322 43.5218C9.342 48.5565 18.6457 52.5 29.9775 52.5C41.3092 52.5 50.6138 48.5565 51.633 43.5218C52.1655 42.603 52.455 41.6318 52.455 40.623C52.455 39.4425 52.0583 38.316 51.336 37.263C52.089 36.1552 52.5 34.9553 52.5 33.696ZM47.967 20.8125L47.961 20.7847C47.973 20.7825 47.9827 20.7765 47.9948 20.7743L47.967 20.8125ZM32.5387 9.2925C47.6512 9.2925 51.2243 19.4085 47.2635 19.4085C45.2235 19.4085 47.652 22.3102 46.062 22.3102C42.9277 22.3102 46.8413 35.9663 43.4325 35.9663C39.2722 35.9663 45.1958 23.718 41.6595 23.718C39.9945 23.718 39.399 26.1105 37.5188 26.1105C35.46 26.1105 35.2627 23.4113 33.825 23.4113C33.2572 23.4113 32.4968 23.832 31.3523 25.0042C29.9318 26.46 28.4415 27.3983 27.225 27.3983C25.9747 27.3983 25.0133 26.4075 24.711 23.9685C24.6038 23.1023 24.2647 22.7985 23.856 22.7985C23.1113 22.7985 22.1348 23.8057 21.9 24.2618C19.3328 29.2523 23.955 40.425 20.031 40.425C15.4388 40.425 21.4785 23.7698 18.4867 23.7698C17.691 23.7698 16.6823 24.7628 15.897 24.7628C15.7559 24.7649 15.6171 24.7272 15.4965 24.654C12.6757 22.9268 18.2063 17.9557 15.459 17.9557C9.28725 17.9565 15.7222 9.2925 32.5387 9.2925ZM46.2157 27.0667C46.2144 27.0012 46.2126 26.9357 46.2105 26.8703C46.2847 26.7765 46.3537 26.6828 46.422 26.5882C46.779 27.279 46.9702 28.002 46.9702 28.7467C46.9702 29.523 46.7588 30.276 46.3725 30.9945C46.3538 30.3083 46.323 29.595 46.2885 28.854C46.278 28.6462 46.2675 28.419 46.257 28.1828C46.2743 28.041 46.2907 27.9 46.2907 27.7568C46.2895 27.5248 46.2643 27.2936 46.2157 27.0667ZM27.9382 31.7168C26.1693 31.716 24.4026 31.5872 22.6522 31.3313C22.5969 30.6721 22.5596 30.0116 22.5405 29.3505C24.2438 29.5965 26.0535 29.736 27.9382 29.736C33.2745 29.736 38.0498 28.6725 41.2905 26.9955C41.2001 27.6837 41.0948 28.3699 40.9748 29.0535C37.65 30.6908 33.0502 31.7168 27.9382 31.7168ZM40.6995 35.436C37.4685 36.8115 33.252 37.6538 28.6185 37.6538C26.7045 37.6538 24.867 37.503 23.133 37.239C23.1227 36.5782 23.0874 35.9179 23.0272 35.2598C24.8781 35.5364 26.747 35.675 28.6185 35.6745C33.1673 35.6745 37.302 34.8967 40.4355 33.6307C40.4422 34.2937 40.5173 34.9043 40.6995 35.436ZM22.8323 25.9103C22.9275 25.5563 23.0392 25.2202 23.1908 24.927C23.2238 24.8708 23.2845 24.7965 23.3588 24.7178C23.4525 25.245 23.5807 25.6995 23.73 26.1022C23.4262 26.0422 23.1285 25.9778 22.8323 25.9103ZM31.62 26.7495C31.8945 26.505 32.1578 26.2582 32.3903 26.019C33.1305 25.26 33.5513 24.9967 33.7388 24.9067C33.8542 25.0373 34.014 25.2607 34.1287 25.4227C34.3545 25.7393 34.6432 26.139 35.0205 26.508C33.8913 26.6405 32.7566 26.7211 31.62 26.7495ZM12.9645 18.8168C13.3793 19.0748 13.8825 19.2495 14.4698 19.338C14.406 19.476 14.3415 19.611 14.286 19.7288C14.0888 20.1413 13.8495 20.6475 13.647 21.1973C12.885 20.286 12.4245 19.3005 12.3278 18.2685C12.507 18.4762 12.717 18.663 12.9645 18.8168ZM11.049 19.3387C11.0587 19.374 11.0647 19.4108 11.0745 19.4468C10.5495 20.1953 10.2638 20.9917 10.2638 21.8182C10.2638 24.483 13.2075 26.8358 17.7113 28.2712C17.6347 28.902 17.55 29.5373 17.469 30.1193C12.708 28.5098 9.58425 25.8375 9.58425 22.8082C9.58425 21.5752 10.1137 20.4052 11.049 19.3387ZM10.2645 28.7475C10.2645 28.389 10.314 28.0373 10.4002 27.6908C10.584 27.8745 10.7752 28.056 10.9792 28.2323C11.2687 30.4207 13.5405 32.3692 17.0017 33.7245C16.9319 34.3394 16.8766 34.9558 16.836 35.5732C12.8212 33.939 10.2645 31.488 10.2645 28.7475ZM16.8503 38.1608C16.2075 37.626 15.669 37.0575 15.2662 36.4583C15.75 36.687 16.266 36.8962 16.7948 37.0988C16.7992 37.4722 16.8165 37.827 16.8503 38.1608ZM11.691 38.3235C12.4507 42.3825 20.0407 45.573 29.298 45.573C34.956 45.573 39.9772 44.376 43.2067 42.5205C44.0554 42.2489 44.8882 41.9302 45.7013 41.5658C43.1055 44.607 36.648 46.8263 29.298 46.8263C19.7422 46.8263 11.6693 43.0807 11.6693 38.6453C11.6693 38.5357 11.682 38.43 11.691 38.3235ZM29.9775 49.7962C18.5798 49.7962 8.9505 45.5947 8.9505 40.6237C8.9505 39.4815 9.46425 38.3812 10.386 37.3612C10.277 37.7804 10.2208 38.2115 10.2188 38.6445C10.2188 44.0467 18.5992 48.2775 29.2972 48.2775C38.895 48.2775 46.6208 44.8703 48.1095 40.269C48.9787 39.7095 49.734 39.0968 50.3633 38.4435C50.7757 39.1455 51.0037 39.8745 51.0037 40.623C51.0045 45.5947 41.3752 49.7962 29.9775 49.7962ZM32.6963 42.6038C28.764 42.6038 25.1392 41.9933 22.1572 40.9688L22.158 40.9673C22.5585 40.5233 22.7992 39.9533 22.9485 39.2985C25.7437 40.1317 29.088 40.623 32.6963 40.623C42.4552 40.623 50.37 37.0777 50.37 32.7052C50.37 31.479 49.7475 30.318 48.636 29.2815C50.169 30.5828 51.0495 32.0887 51.0495 33.6952C51.0495 38.6145 42.8317 42.6038 32.6963 42.6038Z" fill="#3D3D3D"/>
<path d="M16.671 16.7699C18.627 16.5104 16.3118 20.1224 16.2518 22.3566C16.1925 24.5781 24.357 17.7531 25.305 21.8961C26.2538 26.0391 27.3293 27.9674 30.9938 23.9684C33.8438 20.8604 34.8548 22.7871 36.8078 24.3839C38.76 25.9799 41.61 20.2559 44.397 19.5659C47.184 18.8751 47.3618 16.8891 46.473 15.6801C45.5828 14.4726 44.9055 14.8026 45.5828 16.7166C46.26 18.6314 42.6203 17.8386 40.7805 19.8246C38.9423 21.8106 37.7565 22.3281 36.1553 20.8611C34.554 19.3926 31.608 20.8319 29.6925 23.0189C26.1368 27.0756 26.7893 18.7881 23.8823 18.7881C20.9775 18.7881 17.6513 21.6254 18.1553 20.0886C18.5865 18.7716 20.0498 13.4039 15.3068 15.9944C14.6588 16.3461 14.7135 17.0294 16.671 16.7699ZM43.4123 35.2281C45.1613 35.2281 44.1375 26.3189 44.1375 26.3189C44.1375 26.3189 42.4725 35.2281 43.4123 35.2281ZM20.3595 39.8301C22.077 39.8301 20.4038 29.6144 20.4038 29.6144C20.4038 29.6144 18.9345 39.8301 20.3595 39.8301Z" fill="#3D3D3D"/>
<path d="M25.5584 12.6066V13.9648L28.8217 17.3638L36.4349 14.1463V12.6501C41.3279 13.9363 43.8757 16.0303 43.8757 14.1358C43.8757 13.6611 39.0352 11.1583 33.7844 10.6116L36.4349 11.6953L28.7879 14.2303L25.5584 11.8258L32.8102 10.5328C32.5619 10.5193 32.3129 10.5036 32.0647 10.4998C26.3632 10.4218 20.7427 11.7718 20.7427 12.8848C20.7427 13.8118 23.0909 13.2193 25.5584 12.6066Z" fill="#3D3D3D"/>
</svg>
