<svg width="60" height="60" viewBox="0 0 60 60" fill="none" xmlns="http://www.w3.org/2000/svg">
<path d="M52.6874 18.1314L31.9312 6.13137C30.7312 5.45637 29.2687 5.45637 28.0687 6.15012L7.33115 18.1314C7.02616 18.3089 6.78068 18.5729 6.62581 18.89C6.47094 19.207 6.41364 19.563 6.46115 19.9126H6.43115V24.6751C6.43115 25.0782 6.56615 25.4814 6.83615 25.8039C5.10928 26.8389 3.84928 28.6989 3.80615 31.3876C3.84553 33.8551 4.91428 35.6251 6.43115 36.6995V40.5189C6.43115 41.1189 6.73115 41.7189 7.33115 42.0564L28.0874 54.0564C29.2687 54.7501 30.7499 54.7501 31.9312 54.0564L52.6874 42.0564C53.2874 41.7189 53.5874 41.1189 53.5874 40.5189V36.707C55.1062 35.6345 56.1824 33.8607 56.2312 31.3876C56.1712 28.7064 54.9055 26.8464 53.1749 25.8114C53.4423 25.4933 53.5885 25.0907 53.5874 24.6751V19.9126H53.5593C53.6066 19.5628 53.549 19.2067 53.3938 18.8896C53.2386 18.5725 52.9927 18.3086 52.6874 18.1314ZM8.40178 19.6782L29.008 7.772C29.6249 7.41575 30.3768 7.412 31.003 7.76075L51.6168 19.6782L30.9918 31.6032L30.9824 31.6089C30.3862 31.9576 29.6324 31.9576 29.0362 31.6089L8.40178 19.6782ZM7.74365 26.4507L28.0874 38.2126C29.2687 38.9064 30.7499 38.9064 31.9312 38.2126L52.2562 26.462L52.6687 26.7001C53.8499 27.3939 53.8499 29.1001 52.6687 29.7939L31.9124 41.7939C30.7312 42.4876 29.2499 42.4876 28.0687 41.7939L7.3124 29.7939C7.04246 29.6358 6.81858 29.4099 6.663 29.1385C6.50743 28.8672 6.42557 28.5598 6.42557 28.247C6.42557 27.9342 6.50743 27.6268 6.663 27.3555C6.81858 27.0841 7.04246 26.8582 7.3124 26.7001L7.74365 26.4507ZM8.12053 37.5545C9.12077 37.8907 10.1819 38.0065 11.2312 37.8939C12.2249 37.7814 13.1624 38.3064 13.5937 39.2064C14.9999 42.1876 18.4312 43.3126 21.3749 42.5626C22.3499 42.3189 23.3624 42.6939 23.8874 43.5189C24.368 44.6384 25.1466 45.6046 26.1385 46.3121C27.1304 47.0197 28.2974 47.4414 29.5124 47.5314H29.5312C29.6812 47.5501 29.8312 47.5501 29.9999 47.5501H30.0374C30.1874 47.5501 30.3374 47.5501 30.5062 47.5314H30.5249C31.7399 47.4414 32.907 47.0197 33.8988 46.3121C34.8907 45.6046 35.6693 44.6384 36.1499 43.5189C36.6749 42.6939 37.6874 42.3189 38.6624 42.5626C41.5874 43.3126 45.0374 42.1876 46.4437 39.2064C46.8749 38.3064 47.8124 37.7814 48.8062 37.8939C49.8112 38.0014 50.8276 37.8992 51.7911 37.5939L50.0193 38.6195C49.6773 39.9554 49.07 41.2087 48.2334 42.3049C47.3968 43.4011 46.3482 44.3177 45.1499 45.0001C42.5631 46.4919 39.5189 46.983 36.5943 46.3801L31.9124 49.0876C30.7312 49.7814 29.2499 49.7814 28.0687 49.0876L23.3905 46.3839C20.4702 46.9818 17.432 46.4895 14.8499 45.0001C13.6533 44.319 12.6059 43.4044 11.7697 42.3105C10.9335 41.2167 10.3257 39.966 9.9824 38.6326L8.12053 37.5545Z" fill="#3D3D3D"/>
</svg>
