<svg width="60" height="60" viewBox="0 0 60 60" fill="none" xmlns="http://www.w3.org/2000/svg">
<path d="M45.732 40.3561H55.692V43.3561H47.412C50.4441 45.7084 52.7036 48.9137 53.9 52.5601L51.06 53.5281C49.8724 49.857 47.4014 46.737 44.1 44.7401C42.9542 45.7796 41.5007 46.4171 39.96 46.5561L33.748 51.9401H26.08L19.94 46.4921C18.3402 46.3524 16.8183 45.7398 15.568 44.7321C12.2605 46.7288 9.78481 49.8521 8.59596 53.5281L5.75596 52.5601C6.95341 48.9142 9.21266 45.7092 12.244 43.3561H3.95996V40.3561H13.936L17.388 37.6481L13.332 31.0281C12.9746 31.0882 12.6139 31.127 12.252 31.1441C11.1597 31.1619 10.0751 30.958 9.06382 30.5447C8.05255 30.1315 7.13558 29.5174 6.36836 28.7397C5.60113 27.962 4.99958 27.0368 4.60006 26.0201C4.20055 25.0033 4.01137 23.916 4.04396 22.8241C4.04396 14.5041 11.96 6.18408 11.96 6.18408L9.01196 23.9721L15.916 23.9681L19.96 11.9401V23.9241C19.7988 26.099 18.7957 28.1252 17.164 29.5721L20.58 35.1481L20.916 34.8841C23.5327 33.0258 26.6626 32.0275 29.872 32.0275C33.0813 32.0275 36.2113 33.0258 38.828 34.8841L39.068 35.0721L42.548 29.4121C41.0432 27.9625 40.1272 26.008 39.976 23.9241V11.9401L43.908 23.9681L50.928 23.9721L47.98 6.18408C47.98 6.18408 55.908 14.5041 55.908 22.8241C55.9401 23.9173 55.75 25.0056 55.3493 26.0232C54.9486 27.0408 54.3456 27.9665 53.5768 28.7443C52.8079 29.5221 51.8893 30.1359 50.8764 30.5483C49.8635 30.9608 48.7774 31.1635 47.684 31.1441C47.2222 31.1292 46.7623 31.0797 46.308 30.9961L42.268 37.5801L45.628 40.2161C45.68 40.2561 45.688 40.3121 45.732 40.3561Z" fill="#3D3D3D"/>
</svg>
