<svg width="60" height="60" viewBox="0 0 60 60" fill="none" xmlns="http://www.w3.org/2000/svg">
<path d="M53.9555 33.7972C57.2118 27.5939 50.5929 23.292 41.9391 21.1823C42.5902 19.7025 42.7789 17.7653 40.9429 15.9157C38.5884 13.5485 40.1533 10.1 40.1533 10.1C40.1533 10.1 35.2114 14.6586 38.3317 17.8019C39.4826 18.9604 40.0819 19.9778 40.3683 20.8287C37.9794 20.3363 35.5603 20.0029 33.1272 19.8308C33.854 17.8554 33.9245 15.3743 31.6346 12.9985C28.4999 9.74215 30.5874 5 30.5874 5C30.5874 5 23.9974 11.2679 28.1582 15.5893C29.6771 17.1652 30.4769 18.5524 30.8645 19.7152C28.2857 19.6378 25.8037 19.7509 23.5988 20.0594C23.8614 18.7887 23.6421 17.3276 22.2405 15.9166C19.886 13.5493 21.4517 10.1 21.4517 10.1C21.4517 10.1 16.509 14.6586 19.6302 17.8019C20.6077 18.7862 21.1806 19.6651 21.5095 20.4309C21.1372 20.5125 20.776 20.6009 20.4283 20.6969C9.68269 19.6914 4.99582 21.9116 7.13696 26.267C3.40038 30.0036 4.80457 34.2681 9.48039 37.5312C11.9199 47.5791 12.548 56 30.9215 56C47.3162 56 49.5814 49.2935 51.6121 40.7102C57.7048 39.4972 56.4069 36.5767 53.9555 33.7972ZM52.4365 32.7933C50.3957 37.1453 41.5388 40.4212 30.9215 40.4212C20.3051 40.4212 11.4481 37.1453 9.40644 32.7933C9.36309 32.6641 9.32144 32.5298 9.27979 32.3989C10.2522 29.9322 13.4125 27.7919 17.8511 26.3588C16.8082 27.3669 16.5914 28.8723 19.3361 29.4001C20.1215 29.5514 22.2779 29.0278 21.3353 26.352C21.2035 25.978 20.9885 25.7273 20.7241 25.576C23.7739 24.8781 27.2359 24.4761 30.9215 24.4761C31.3346 24.4761 31.74 24.4905 32.1472 24.4998C30.0205 25.2547 28.2857 27.5802 32.6283 28.2662C33.5871 28.4175 36.2195 27.8939 35.0686 25.2181C34.9681 24.9796 34.8069 24.7716 34.6011 24.6146C38.67 24.9138 42.3565 25.6975 45.3365 26.8272C42.716 26.681 39.809 28.296 44.4645 30.5697C45.4632 31.0576 48.4977 31.5056 48.0803 28.551C48.0501 28.3375 47.9748 28.1329 47.8593 27.9508C50.2419 29.2063 51.9036 30.7287 52.5623 32.3989L52.4365 32.7933Z" fill="#3D3D3D"/>
<path d="M22.2221 32.5385C25.253 32.5385 27.2743 29.7982 28.8577 28.7257C31.0702 27.2257 36.6333 26.6407 31.734 26.5226C27.0868 26.411 21.3493 30.1835 17.5149 29.9238C11.1661 29.4926 17.6686 32.5385 22.2221 32.5385ZM28.7715 38.1373C29.8421 38.3435 32.7849 37.6291 31.4977 33.9795C30.0436 29.8498 21.2415 36.6879 28.7715 38.1373ZM12.1064 29.1045C11.0836 27.6607 9.60051 25.8298 8.98645 26.7832C8.14739 28.0873 7.88301 30.7113 8.49239 30.8276C13.2699 31.7435 12.9352 30.2735 12.1064 29.1045ZM39.8799 29.6895C40.7415 28.6226 39.0211 26.0548 37.9168 26.5038C36.188 27.207 35.1915 26.7307 34.4321 27.7976C32.6536 30.296 38.709 31.1379 39.8799 29.6895ZM39.3418 32.7466C38.1024 32.2001 38.3949 34.031 36.5639 32.562C35.2533 31.5101 32.4333 34.1632 34.2933 35.9651C36.3633 37.9704 36.9146 36.0645 37.7846 36.2248C39.5527 36.5501 42.593 34.181 39.3418 32.7466ZM18.7336 33.3729C18.0877 32.7373 17.2215 33.5041 16.7321 34.4398C16.2474 34.2016 15.8527 34.1463 15.8527 34.1463C15.4824 33.0907 14.3808 32.367 14.3808 32.367C14.3808 32.367 14.4811 33.4648 14.6265 34.0001C13.4096 33.5679 13.3721 31.3929 13.3721 31.3929C13.3721 31.3929 12.5555 31.8813 12.6296 32.711C11.2899 31.6301 10.1489 32.1354 10.1489 32.1354C10.1489 32.1354 11.8486 33.0916 12.083 33.7366C11.1286 33.8107 10.5718 34.1407 10.2474 34.9085C10.2483 34.9151 12.1336 34.0113 13.5286 34.6638C12.9783 35.1138 13.2521 36.2379 13.2521 36.2379C14.5505 34.8616 15.5874 35.0088 16.4171 35.2554C16.3168 35.6763 16.3233 36.0607 16.5015 36.2941C17.9405 38.186 22.9533 37.7604 24.2996 36.3616C25.9299 34.6695 21.3999 35.997 18.7336 33.3729Z" fill="#3D3D3D"/>
<path d="M22.2749 26.2467C21.8483 27.1036 21.8455 27.7505 22.3386 28.4236C22.3452 28.4255 22.5374 26.3442 23.8133 25.4817C23.9174 26.1848 25.0217 26.5261 25.0217 26.5261C24.1386 23.3986 26.7167 23.2355 26.7046 22.1133C25.3377 22.2286 24.5614 23.2223 24.5614 23.2223C23.4655 22.9983 22.2777 23.5711 22.2777 23.5711C22.2777 23.5711 23.2724 24.0483 23.8058 24.1992C22.8102 25.0214 20.9239 23.9367 20.9239 23.9367C20.9239 23.9367 20.9239 24.8892 21.6739 25.2502C20.0586 25.8455 19.9067 27.083 19.9067 27.083C19.9067 27.083 21.5999 26.1164 22.2749 26.2467ZM46.2289 30.518C46.6171 29.7811 46.0508 29.0152 46.0508 29.0152C46.0508 29.0152 45.1799 31.0092 43.8908 30.9408C44.2302 30.502 44.7458 29.527 44.7458 29.527C44.7458 29.527 43.4502 29.7736 42.702 30.6052C42.702 30.6052 41.487 30.2686 40.3208 30.9886C40.9789 31.898 43.1483 30.4945 44.2986 33.5339C44.2986 33.5339 44.983 32.603 44.6483 31.9758C46.1877 31.9092 47.5808 33.4673 47.5855 33.4617C47.5799 32.6273 47.1936 32.1098 46.3396 31.6748C46.8046 31.1695 48.7414 30.9398 48.7414 30.9398C48.7414 30.9398 47.8827 30.0352 46.2289 30.518Z" fill="#3D3D3D"/>
</svg>
