<svg width="60" height="60" viewBox="0 0 60 60" fill="none" xmlns="http://www.w3.org/2000/svg">
<path d="M38.9998 2.32275L36.8904 2.53369C36.9842 3.45361 37.0076 4.36064 36.9842 5.2583C34.8748 3.94111 31.1717 1.98877 29.7186 3.56494C28.5467 4.83525 31.6521 8.37314 31.6521 8.37314C31.6521 8.37314 28.3006 9.24033 28.2068 10.6044C28.1131 12.0938 31.6287 13.5001 31.6287 13.5001C31.6287 13.5001 25.8162 15.047 26.5662 16.9454C27.3982 19.0196 31.6639 17.4962 34.2186 16.3595C33.1873 18.8673 31.992 21.3517 30.8553 23.8712C31.5818 24.0235 32.2615 24.2228 32.9061 24.4571C36.035 17.6134 39.8201 10.561 38.9998 2.32275ZM50.2029 3.08799C42.2225 8.679 38.1209 17.086 34.7928 25.3009C35.4373 25.6642 36.035 26.0978 36.5623 26.5665C37.1014 25.2423 37.6521 23.9063 38.2381 22.5821C40.3592 23.4493 49.3592 26.8712 51.4803 23.4376C52.8982 21.1524 47.3318 16.5118 47.3318 16.5118C47.3318 16.5118 55.0779 18.7853 55.91 16.0431C56.7303 13.336 49.1248 10.9185 49.1248 10.9185C49.1248 10.9185 56.7889 11.5888 56.6482 9.00713C56.4959 6.22041 51.5623 6.29189 48.3982 7.24932C49.3357 6.38447 50.3436 5.57002 51.4217 4.81533L50.2029 3.08799ZM25.5936 25.4767C25.3709 25.4767 25.1365 25.4767 24.9021 25.4884C23.9295 25.5118 22.2068 26.2853 20.367 27.797C20.2029 27.9259 20.0389 28.0665 19.8748 28.2188C21.2928 30.5157 24.117 32.5196 27.3396 33.7853C30.5506 35.0509 34.1248 35.6017 36.8553 35.2853C37.3826 34.1954 37.5467 33.1056 37.3006 31.922C36.8436 29.6954 35.6482 28.1485 33.5975 27.047C31.8162 26.0978 29.3436 25.547 26.2615 25.4884C26.0389 25.4884 25.8162 25.4767 25.5936 25.4767ZM18.3162 29.7071C17.3904 30.6681 16.4412 31.7813 15.5389 33.0118C15.5389 34.8165 16.5701 36.2696 17.5076 37.4298C15.9139 36.9962 14.9881 36.5157 14.3553 34.711C11.2334 39.4923 8.81465 45.5978 8.75254 51.7501C13.16 49.5821 17.9881 47.5196 22.3943 45.4454C19.5936 45.0704 17.2029 43.9337 15.1521 42.2579C19.3006 43.4298 22.4881 43.9454 26.742 43.3009C27.2693 43.0196 27.7967 42.7501 28.3006 42.4688C29.0857 42.0353 29.8357 41.5899 30.5506 41.1446C27.8318 41.0626 24.6443 40.5821 22.4178 39.4103C25.4178 39.5626 31.3943 39.211 33.6561 38.9649C34.2537 38.4728 34.7811 37.9806 35.2498 37.4884C32.4842 37.5001 29.4256 36.879 26.5662 35.7423C23.2146 34.4181 20.1209 32.4024 18.3162 29.7071ZM6.63965 51.6329C5.39863 53.2618 4.37441 54.9493 3.34668 56.5313L5.11621 57.6798C5.67637 56.8126 6.22246 55.9454 6.78379 55.1017H6.77559L6.68066 53.4845C6.64434 52.8634 6.63145 52.2423 6.63965 51.6329Z" fill="#3D3D3D"/>
</svg>
