<svg width="60" height="60" viewBox="0 0 60 60" fill="none" xmlns="http://www.w3.org/2000/svg">
<g clip-path="url(#clip0_774_3094)">
<path d="M13.125 35.625H11.25C10.2554 35.625 9.30161 35.2299 8.59835 34.5266C7.89509 33.8234 7.5 32.8696 7.5 31.875C7.5 30.8804 7.89509 29.9266 8.59835 29.2234C9.30161 28.5201 10.2554 28.125 11.25 28.125H13.125V35.625ZM46.875 35.625H48.75C49.7446 35.625 50.6984 35.2299 51.4016 34.5266C52.1049 33.8234 52.5 32.8696 52.5 31.875C52.5 30.8804 52.1049 29.9266 51.4016 29.2234C50.6984 28.5201 49.7446 28.125 48.75 28.125H46.875V35.625ZM33.75 33.75C33.75 32.7554 34.1451 31.8016 34.8484 31.0984C35.5516 30.3951 36.5054 30 37.5 30C38.4946 30 39.4484 30.3951 40.1516 31.0984C40.8549 31.8016 41.25 32.7554 41.25 33.75H33.75ZM20.625 35.625C20.625 35.1277 20.8225 34.6508 21.1742 34.2992C21.5258 33.9475 22.0027 33.75 22.5 33.75C22.9973 33.75 23.4742 33.9475 23.8258 34.2992C24.1775 34.6508 24.375 35.1277 24.375 35.625H20.625ZM33.75 22.5C33.75 21.5054 34.1451 20.5516 34.8484 19.8484C35.5516 19.1451 36.5054 18.75 37.5 18.75C38.4946 18.75 39.4484 19.1451 40.1516 19.8484C40.8549 20.5516 41.25 21.5054 41.25 22.5H33.75ZM33.75 22.5H30C30 22.0027 30.1975 21.5258 30.5492 21.1742C30.9008 20.8225 31.3777 20.625 31.875 20.625C32.3723 20.625 32.8492 20.8225 33.2008 21.1742C33.5525 21.5258 33.75 22.0027 33.75 22.5ZM30 35.625C29.0054 35.625 28.0516 36.0201 27.3484 36.7234C26.6451 37.4266 26.25 38.3804 26.25 39.375H33.75C33.75 38.3804 33.3549 37.4266 32.6516 36.7234C31.9484 36.0201 30.9946 35.625 30 35.625ZM29.5312 16.875C29.5312 17.248 29.3831 17.6056 29.1194 17.8694C28.8556 18.1331 28.498 18.2812 28.125 18.2812C27.752 18.2812 27.3944 18.1331 27.1306 17.8694C26.8669 17.6056 26.7188 17.248 26.7188 16.875C26.7188 16.502 26.8669 16.1444 27.1306 15.8806C27.3944 15.6169 27.752 15.4688 28.125 15.4688C28.498 15.4688 28.8556 15.6169 29.1194 15.8806C29.3831 16.1444 29.5312 16.502 29.5312 16.875ZM20.1562 30C20.1562 30.373 20.0081 30.7306 19.7444 30.9944C19.4806 31.2581 19.123 31.4062 18.75 31.4062C18.377 31.4062 18.0194 31.2581 17.7556 30.9944C17.4919 30.7306 17.3438 30.373 17.3438 30C17.3438 29.627 17.4919 29.2694 17.7556 29.0056C18.0194 28.7419 18.377 28.5938 18.75 28.5938C19.123 28.5938 19.4806 28.7419 19.7444 29.0056C20.0081 29.2694 20.1562 29.627 20.1562 30ZM39.375 27.6562C39.748 27.6562 40.1056 27.5081 40.3694 27.2444C40.6331 26.9806 40.7812 26.623 40.7812 26.25C40.7812 25.877 40.6331 25.5194 40.3694 25.2556C40.1056 24.9919 39.748 24.8438 39.375 24.8438C39.002 24.8438 38.6444 24.9919 38.3806 25.2556C38.1169 25.5194 37.9688 25.877 37.9688 26.25C37.9688 26.623 38.1169 26.9806 38.3806 27.2444C38.6444 27.5081 39.002 27.6562 39.375 27.6562ZM26.8331 23.8612C26.8331 22.991 26.4874 22.1564 25.8721 21.5411C25.2567 20.9257 24.4221 20.58 23.5519 20.58C22.6816 20.58 21.847 20.9257 21.2317 21.5411C20.6163 22.1564 20.2706 22.991 20.2706 23.8612C20.2706 24.968 20.4886 26.064 20.9122 27.0866C21.3357 28.1091 21.9565 29.0382 22.7392 29.8208C24.3197 31.4014 26.4635 32.2894 28.6987 32.2894C29.569 32.2894 30.4036 31.9437 31.0189 31.3283C31.6343 30.713 31.98 29.8784 31.98 29.0081C31.98 28.1379 31.6343 27.3033 31.0189 26.6879C30.4036 26.0726 29.569 25.7269 28.6987 25.7269C28.204 25.7269 27.7294 25.5303 27.3796 25.1804C27.0297 24.8306 26.8331 24.356 26.8331 23.8612Z" fill="#3D3D3D"/>
<path d="M50.3043 43.0181C48.5812 52.6706 40.1475 60 30 60C19.8525 60 11.4168 52.6725 9.69559 43.0181C6.97047 42.6361 4.47982 41.2687 2.69471 39.1745C0.909593 37.0803 -0.0462177 34.4046 0.00804955 31.6533C0.0623168 28.9021 1.1229 26.2661 2.98921 24.244C4.85552 22.2218 7.39815 20.9537 10.1362 20.6794C12.5681 11.9944 20.5387 5.625 30 5.625C39.4612 5.625 47.4318 11.9944 49.8637 20.6794C52.6044 20.9501 55.1506 22.2166 57.0198 24.2392C58.8891 26.2617 59.9515 28.8996 60.0058 31.653C60.0601 34.4065 59.1025 37.0843 57.3145 39.1789C55.5265 41.2736 53.0322 42.6396 50.3043 43.0181ZM11.25 24.375C9.26084 24.375 7.35319 25.1652 5.94666 26.5717C4.54014 27.9782 3.74997 29.8859 3.74997 31.875C3.74997 33.8641 4.54014 35.7718 5.94666 37.1783C7.35319 38.5848 9.26084 39.375 11.25 39.375H13.125C13.125 43.8505 14.9029 48.1427 18.0675 51.3074C21.2322 54.4721 25.5244 56.25 30 56.25C34.4755 56.25 38.7677 54.4721 41.9324 51.3074C45.0971 48.1427 46.875 43.8505 46.875 39.375H48.75C50.7391 39.375 52.6467 38.5848 54.0533 37.1783C55.4598 35.7718 56.25 33.8641 56.25 31.875C56.25 29.8859 55.4598 27.9782 54.0533 26.5717C52.6467 25.1652 50.7391 24.375 48.75 24.375H46.7718C47.0338 26.7337 46.7953 29.1212 46.0719 31.3815C45.3485 33.6417 44.1565 35.724 42.5737 37.4923C40.9909 39.2607 39.053 40.6752 36.8863 41.6437C34.7197 42.6122 32.3732 43.1127 30 43.1127C27.6267 43.1127 25.2802 42.6122 23.1136 41.6437C20.947 40.6752 19.009 39.2607 17.4262 37.4923C15.8434 35.724 14.6514 33.6417 13.928 31.3815C13.2046 29.1212 12.9661 26.7337 13.2281 24.375H11.25ZM30 41.25C33.9782 41.25 37.7935 39.6696 40.6066 36.8566C43.4196 34.0436 45 30.2282 45 26.25C45 22.2718 43.4196 18.4564 40.6066 15.6434C37.7935 12.8304 33.9782 11.25 30 11.25C26.0217 11.25 22.2064 12.8304 19.3934 15.6434C16.5803 18.4564 15 22.2718 15 26.25C15 30.2282 16.5803 34.0436 19.3934 36.8566C22.2064 39.6696 26.0217 41.25 30 41.25Z" fill="#3D3D3D"/>
</g>
<defs>
<clipPath id="clip0_774_3094">
<rect width="60" height="60" fill="white"/>
</clipPath>
</defs>
</svg>
