<svg width="60" height="60" viewBox="0 0 60 60" fill="none" xmlns="http://www.w3.org/2000/svg">
<path d="M5.8335 30C5.8335 43.3475 16.6527 54.1667 30.0002 54.1667C43.3477 54.1667 54.1668 43.3475 54.1668 30H5.8335Z" fill="white"/>
<path d="M5.8335 20.9508L11.6668 26.7841M24.2027 6.53828C24.282 7.50761 24.7011 8.41778 25.386 9.10828C26.1671 9.88965 26.6059 10.9493 26.6059 12.0541C26.6059 13.159 26.1671 14.2186 25.386 14.9999C24.6049 15.7813 24.1661 16.8409 24.1661 17.9458C24.1661 19.0506 24.6049 20.1102 25.386 20.8916C26.1671 21.673 26.6059 22.7326 26.6059 23.8374C26.6059 24.9423 26.1671 26.0019 25.386 26.7833M28.8085 5.86328C28.7252 7.02828 29.1102 8.21828 30.0002 9.10828C30.7813 9.88965 31.2201 10.9493 31.2201 12.0541C31.2201 13.159 30.7813 14.2186 30.0002 14.9999C29.219 15.7813 28.7802 16.8409 28.7802 17.9458C28.7802 19.0506 29.219 20.1102 30.0002 20.8916C30.7813 21.673 31.2201 22.7326 31.2201 23.8374C31.2201 24.9423 30.7813 26.0019 30.0002 26.7833M33.3418 6.06911C33.3268 6.63143 33.4264 7.19092 33.6348 7.71344C33.8431 8.23597 34.1557 8.71057 34.5535 9.10828C35.3346 9.88965 35.7734 10.9493 35.7734 12.0541C35.7734 13.159 35.3346 14.2186 34.5535 14.9999C33.7724 15.7813 33.3336 16.8409 33.3336 17.9458C33.3336 19.0506 33.7724 20.1102 34.5535 20.8916C35.3346 21.673 35.7734 22.7326 35.7734 23.8374C35.7734 24.9423 35.3346 26.0019 34.5535 26.7833M5.8335 29.9999C5.8335 43.3474 16.6527 54.1666 30.0002 54.1666C43.3477 54.1666 54.1668 43.3474 54.1668 29.9999H5.8335Z" stroke="#3D3D3D" stroke-width="3" stroke-miterlimit="10" stroke-linecap="round" stroke-linejoin="round"/>
</svg>
