<svg width="60" height="60" viewBox="0 0 60 60" fill="none" xmlns="http://www.w3.org/2000/svg">
<path d="M9 49.0909C9 50.1218 9.85909 51 10.9091 51H35.7273C36.7964 51 37.6364 50.1218 37.6364 49.0909V47.1818H9V49.0909ZM23.3182 24.2727C16.1591 24.2727 9 28.0909 9 35.7273H37.6364C37.6364 28.0909 30.4773 24.2727 23.3182 24.2727ZM14.0018 31.9091C16.1209 28.95 20.6264 28.0909 23.3182 28.0909C26.01 28.0909 30.5155 28.95 32.6345 31.9091H14.0018ZM9 39.5455H37.6364V43.3636H9V39.5455ZM41.4545 16.6364V9H37.6364V16.6364H28.0909L28.53 20.4545H46.7809L44.1082 47.1818H41.4545V51H44.7382C46.3418 51 47.6591 49.7591 47.85 48.1936L51 16.6364H41.4545Z" fill="#3D3D3D"/>
</svg>
