<svg width="120" height="39" viewBox="0 0 120 39" fill="none" xmlns="http://www.w3.org/2000/svg">
<g clip-path="url(#clip0_1084_86)">
<path d="M110.444 0.500123H9.56145C9.19372 0.500123 8.8304 0.500124 8.46364 0.502024C8.15663 0.503923 7.85207 0.509443 7.54211 0.514088C6.86874 0.521595 6.19695 0.577716 5.53259 0.681963C4.86915 0.78848 4.2265 0.989293 3.62637 1.27761C3.02697 1.56837 2.47929 1.94618 2.00318 2.39734C1.52457 2.84723 1.12561 3.36724 0.82165 3.93738C0.516847 4.50638 0.305496 5.11612 0.194896 5.74553C0.083244 6.37415 0.0231632 7.01002 0.0151925 7.64743C0.00588648 7.9387 0.00490373 8.23094 0 8.52225V30.4808C0.00490373 30.7758 0.00588648 31.0615 0.0151925 31.3566C0.0231657 31.994 0.0832464 32.6298 0.194896 33.2584C0.30519 33.8882 0.516554 34.4983 0.82165 35.0675C1.12548 35.6358 1.52449 36.1537 2.00318 36.6011C2.47748 37.0542 3.02552 37.4323 3.62637 37.7208C4.2265 38.0099 4.86908 38.2119 5.53259 38.3201C6.19707 38.4235 6.86879 38.4797 7.54211 38.4881C7.85207 38.4945 8.15663 38.4982 8.46364 38.4982C8.83039 38.5001 9.19374 38.5001 9.56145 38.5001H110.444C110.804 38.5001 111.171 38.5001 111.531 38.4982C111.837 38.4982 112.15 38.4945 112.455 38.4881C113.128 38.4801 113.798 38.424 114.461 38.3201C115.127 38.2112 115.772 38.0092 116.375 37.7208C116.975 37.4321 117.522 37.0541 117.996 36.6011C118.474 36.1519 118.874 35.6344 119.181 35.0675C119.484 34.4979 119.693 33.8878 119.802 33.2584C119.914 32.6297 119.976 31.994 119.988 31.3566C119.992 31.0615 119.992 30.7758 119.992 30.4808C120 30.1357 120 29.7924 120 29.4417V9.55945C120 9.21155 120 8.86643 119.992 8.52225C119.992 8.23094 119.992 7.9387 119.988 7.64739C119.976 7.00992 119.914 6.3742 119.802 5.74549C119.693 5.11644 119.484 4.50675 119.181 3.93734C118.562 2.79456 117.581 1.86435 116.375 1.27753C115.772 0.989912 115.127 0.789152 114.461 0.681877C113.798 0.577171 113.128 0.521031 112.455 0.513955C112.15 0.50932 111.837 0.503753 111.531 0.5019C111.171 0.5 110.804 0.500123 110.444 0.500123Z" fill="#A6A6A6"/>
<path d="M8.46856 37.6688C8.16303 37.6688 7.86487 37.6651 7.56174 37.6586C6.93376 37.6509 6.30725 37.5991 5.68735 37.5037C5.10932 37.4094 4.54937 37.234 4.02596 36.9832C3.50735 36.7345 3.03433 36.4084 2.62504 36.0174C2.20981 35.631 1.86412 35.1829 1.60166 34.6907C1.33631 34.1954 1.15267 33.6645 1.05714 33.1164C0.953972 32.5275 0.898156 31.932 0.890169 31.3351C0.883812 31.1348 0.875488 30.4677 0.875488 30.4677V8.52217C0.875488 8.52217 0.884353 7.86533 0.89022 7.67236C0.897867 7.07641 0.953358 6.48187 1.05621 5.89389C1.15192 5.34434 1.3357 4.81186 1.6012 4.3149C1.8627 3.8231 2.20647 3.37462 2.61919 2.98684C3.03145 2.59539 3.50597 2.26762 4.02547 2.0155C4.54767 1.76554 5.10657 1.59134 5.68343 1.49876C6.30537 1.40239 6.93405 1.3503 7.5642 1.3429L8.46906 1.3313H111.526L112.442 1.34336C113.066 1.35039 113.689 1.40203 114.305 1.49782C114.888 1.59158 115.453 1.76698 115.981 2.01828C117.022 2.52639 117.869 3.33025 118.403 4.31722C118.664 4.81075 118.845 5.33888 118.939 5.88369C119.044 6.47649 119.102 7.0757 119.114 7.67654C119.117 7.94558 119.117 8.23457 119.117 8.52217C119.125 8.87842 119.125 9.2175 119.125 9.55937V29.4416C119.125 29.7867 119.125 30.1235 119.117 30.463C119.117 30.772 119.117 31.055 119.113 31.3463C119.101 31.9364 119.044 32.5249 118.941 33.1071C118.848 33.6591 118.665 34.1942 118.4 34.6936C118.136 35.1804 117.792 35.6246 117.381 36.01C116.972 36.4031 116.498 36.7311 115.978 36.9814C115.451 37.2341 114.887 37.4101 114.305 37.5037C113.686 37.5996 113.059 37.6514 112.431 37.6586C112.137 37.6651 111.83 37.6688 111.531 37.6688L110.444 37.6707L8.46856 37.6688Z" fill="#201A18"/>
<path d="M24.8384 19.7855C24.8492 18.9925 25.0715 18.2151 25.4847 17.5254C25.8979 16.8358 26.4885 16.2563 27.2016 15.841C26.7486 15.2281 26.151 14.7237 25.4562 14.3679C24.7614 14.0121 23.9887 13.8146 23.1992 13.7912C21.5153 13.6238 19.8828 14.7458 19.0247 14.7458C18.1499 14.7458 16.8287 13.8078 15.406 13.8356C14.4858 13.8637 13.5889 14.1172 12.8028 14.5714C12.0168 15.0255 11.3683 15.6649 10.9205 16.427C8.98111 19.608 10.4278 24.283 12.2856 26.8543C13.2151 28.1134 14.3014 29.5198 15.7228 29.4699C17.1138 29.4153 17.6333 28.6297 19.3123 28.6297C20.9757 28.6297 21.4631 29.4699 22.9133 29.4382C24.4059 29.4153 25.3463 28.1736 26.2432 26.9026C26.911 26.0054 27.4249 25.0139 27.7659 23.9647C26.8987 23.6172 26.1587 23.0357 25.6382 22.2925C25.1176 21.5493 24.8394 20.6774 24.8384 19.7855Z" fill="white"/>
<path d="M22.0991 12.1003C22.9129 11.1748 23.3139 9.9852 23.2168 8.78418C21.9735 8.90789 20.825 9.47082 20.0002 10.3608C19.5969 10.7956 19.288 11.3014 19.0913 11.8493C18.8945 12.3973 18.8136 12.9766 18.8533 13.5541C19.4751 13.5602 20.0904 13.4325 20.6526 13.1807C21.2148 12.9288 21.7094 12.5594 22.0991 12.1003Z" fill="white"/>
<path d="M42.421 26.2825H37.6743L36.5344 29.4712H34.5239L39.0199 17.6741H41.1088L45.6047 29.4712H43.56L42.421 26.2825ZM38.166 24.8112H41.9285L40.0737 19.6363H40.0218L38.166 24.8112Z" fill="white"/>
<path d="M55.3146 25.1711C55.3146 27.8439 53.8045 29.5612 51.5256 29.5612C50.9484 29.5898 50.3743 29.4638 49.869 29.1977C49.3638 28.9315 48.948 28.536 48.669 28.0564H48.6259V32.3165H46.7623V20.8701H48.5662V22.3007H48.6005C48.8922 21.8234 49.3151 21.4299 49.8242 21.1621C50.3332 20.8944 50.9094 20.7624 51.4914 20.7802C53.7956 20.7802 55.3146 22.5057 55.3146 25.1711ZM53.399 25.1711C53.399 23.4298 52.4491 22.2849 50.9997 22.2849C49.5758 22.2849 48.6181 23.4539 48.6181 25.1711C48.6181 26.9041 49.5758 28.0647 50.9997 28.0647C52.4491 28.0647 53.399 26.9283 53.399 25.1711Z" fill="white"/>
<path d="M65.3074 25.1711C65.3074 27.8439 63.7973 29.5612 61.5184 29.5612C60.9412 29.5898 60.3671 29.4638 59.8618 29.1977C59.3566 28.9315 58.9408 28.536 58.6618 28.0564H58.6187V32.3165H56.7551V20.8701H58.5589V22.3007H58.5932C58.885 21.8234 59.3079 21.4299 59.817 21.1621C60.326 20.8944 60.9022 20.7624 61.4841 20.7802C63.7885 20.7802 65.3074 22.5057 65.3074 25.1711ZM63.3918 25.1711C63.3918 23.4298 62.4419 22.2849 60.9925 22.2849C59.5686 22.2849 58.6109 23.4539 58.6109 25.1711C58.6109 26.9041 59.5686 28.0647 60.9925 28.0647C62.4419 28.0647 63.3918 26.9282 63.3918 25.1711Z" fill="white"/>
<path d="M71.9118 26.1841C72.0499 27.354 73.2495 28.1221 74.8889 28.1221C76.4597 28.1221 77.5898 27.354 77.5898 26.2991C77.5898 25.3835 76.9082 24.8352 75.2943 24.4594L73.6804 24.0911C71.3938 23.5679 70.3322 22.5548 70.3322 20.9108C70.3322 18.8754 72.2046 17.4773 74.8634 17.4773C77.4948 17.4773 79.2987 18.8754 79.3594 20.9108H77.4781C77.3655 19.7335 76.3382 19.0229 74.837 19.0229C73.3357 19.0229 72.3084 19.7419 72.3084 20.7884C72.3084 21.6224 72.9645 22.1132 74.5696 22.4889L75.9416 22.808C78.4966 23.3804 79.5582 24.3527 79.5582 26.0783C79.5582 28.2854 77.7024 29.6677 74.7508 29.6677C71.9891 29.6677 70.1245 28.3178 70.0041 26.184L71.9118 26.1841Z" fill="white"/>
<path d="M83.5802 18.8347V20.8702H85.3067V22.2683H83.5802V27.0099C83.5802 27.7465 83.9259 28.0898 84.6849 28.0898C84.8898 28.0864 85.0945 28.0728 85.2979 28.0489V29.4387C84.9567 29.4991 84.6099 29.5264 84.2628 29.5203C82.4246 29.5203 81.7078 28.8663 81.7078 27.1982V22.2683H80.3877V20.8702H81.7078V18.8347H83.5802Z" fill="white"/>
<path d="M86.3066 25.1711C86.3066 22.4649 87.9891 20.7644 90.6126 20.7644C93.245 20.7644 94.9196 22.4649 94.9196 25.1711C94.9196 27.8848 93.2538 29.5779 90.6126 29.5779C87.9724 29.5779 86.3066 27.8848 86.3066 25.1711ZM93.0207 25.1711C93.0207 23.3147 92.1227 22.2191 90.6126 22.2191C89.1025 22.2191 88.2055 23.3231 88.2055 25.1711C88.2055 27.035 89.1025 28.1223 90.6126 28.1223C92.1227 28.1223 93.0207 27.035 93.0207 25.1711Z" fill="white"/>
<path d="M96.4561 20.8701H98.2335V22.334H98.2766C98.3969 21.8768 98.6797 21.4727 99.0774 21.1897C99.4751 20.9067 99.9635 20.7621 100.46 20.7801C100.675 20.7793 100.889 20.8014 101.099 20.8459V22.4973C100.828 22.4188 100.545 22.3828 100.262 22.3906C99.9909 22.3802 99.721 22.4254 99.4705 22.5232C99.2199 22.6209 98.9947 22.7689 98.8102 22.9569C98.6257 23.1449 98.4863 23.3684 98.4017 23.6123C98.317 23.8561 98.289 24.1144 98.3197 24.3695V29.4711H96.4561L96.4561 20.8701Z" fill="white"/>
<path d="M109.691 26.945C109.441 28.5063 107.836 29.5779 105.782 29.5779C103.141 29.5779 101.501 27.9015 101.501 25.212C101.501 22.5141 103.15 20.7644 105.704 20.7644C108.216 20.7644 109.795 22.3991 109.795 25.0069V25.6118H103.383V25.7185C103.353 26.035 103.395 26.3539 103.505 26.654C103.616 26.954 103.793 27.2284 104.024 27.4588C104.255 27.6892 104.535 27.8704 104.845 27.9904C105.156 28.1104 105.49 28.1664 105.825 28.1547C106.265 28.1938 106.707 28.0972 107.085 27.8792C107.463 27.6613 107.756 27.3336 107.922 26.945L109.691 26.945ZM103.392 24.3779H107.931C107.947 24.0933 107.902 23.8085 107.797 23.5413C107.692 23.2742 107.53 23.0305 107.321 22.8255C107.111 22.6205 106.86 22.4587 106.582 22.3502C106.303 22.2417 106.004 22.1888 105.704 22.195C105.4 22.1933 105.099 22.2485 104.819 22.3575C104.538 22.4665 104.282 22.6271 104.067 22.8301C103.853 23.033 103.682 23.2743 103.566 23.54C103.45 23.8056 103.391 24.0904 103.392 24.3779Z" fill="white"/>
<path d="M37.9324 8.79452C38.3231 8.76796 38.7151 8.82387 39.0803 8.95824C39.4454 9.0926 39.7745 9.30205 40.0439 9.5715C40.3132 9.84094 40.5161 10.1637 40.6378 10.5164C40.7595 10.8691 40.7971 11.243 40.7479 11.6111C40.7479 13.4221 39.7147 14.463 37.9324 14.463H35.7711V8.79452H37.9324ZM36.7004 13.6614H37.8286C38.1078 13.6772 38.3871 13.6338 38.6464 13.5344C38.9057 13.435 39.1383 13.2821 39.3273 13.0869C39.5163 12.8916 39.657 12.6588 39.7391 12.4055C39.8212 12.1522 39.8426 11.8848 39.8019 11.6227C39.8397 11.3616 39.8161 11.0958 39.7327 10.8444C39.6494 10.5929 39.5083 10.3621 39.3197 10.1683C39.1311 9.97461 38.8997 9.82279 38.6419 9.72377C38.3841 9.62474 38.1063 9.58097 37.8286 9.59557H36.7004V13.6614Z" fill="white"/>
<path d="M41.7977 12.3221C41.7693 12.041 41.8032 11.7573 41.8973 11.4894C41.9914 11.2214 42.1436 10.975 42.3441 10.766C42.5446 10.5571 42.789 10.3901 43.0616 10.2758C43.3343 10.1616 43.6291 10.1025 43.9272 10.1025C44.2253 10.1025 44.5201 10.1616 44.7927 10.2758C45.0653 10.3901 45.3097 10.5571 45.5102 10.766C45.7107 10.975 45.8629 11.2214 45.957 11.4894C46.0511 11.7573 46.0851 12.041 46.0567 12.3221C46.0856 12.6035 46.052 12.8875 45.9582 13.1559C45.8643 13.4243 45.7122 13.6712 45.5117 13.8806C45.3111 14.09 45.0666 14.2573 44.7937 14.3718C44.5208 14.4863 44.2256 14.5455 43.9272 14.5455C43.6287 14.5455 43.3336 14.4863 43.0607 14.3718C42.7878 14.2573 42.5432 14.09 42.3426 13.8806C42.1421 13.6712 41.99 13.4243 41.8961 13.1559C41.8023 12.8875 41.7687 12.6035 41.7977 12.3221ZM45.14 12.3221C45.14 11.3948 44.7003 10.8526 43.9286 10.8526C43.154 10.8526 42.7182 11.3948 42.7182 12.3221C42.7182 13.2568 43.154 13.7949 43.9286 13.7949C44.7003 13.7949 45.14 13.2531 45.14 12.3221Z" fill="white"/>
<path d="M51.718 14.4628H50.7936L49.8603 11.3123H49.7898L48.8604 14.4628H47.9448L46.7001 10.1851H47.604L48.4129 13.4493H48.4795L49.4079 10.1851H50.2628L51.1912 13.4493H51.2617L52.0667 10.1851H52.9578L51.718 14.4628Z" fill="white"/>
<path d="M54.0047 10.1852H54.8626V10.8647H54.9292C55.0421 10.6207 55.2327 10.4161 55.4742 10.2794C55.7158 10.1428 55.9963 10.081 56.2767 10.1026C56.4964 10.087 56.717 10.1183 56.9222 10.1944C57.1274 10.2705 57.3118 10.3894 57.4619 10.5422C57.612 10.695 57.7239 10.8778 57.7893 11.0771C57.8547 11.2765 57.8719 11.4872 57.8397 11.6937V14.4629H56.9485V11.9057C56.9485 11.2182 56.6332 10.8763 55.9741 10.8763C55.8249 10.8698 55.676 10.8938 55.5375 10.9468C55.3991 10.9999 55.2744 11.0807 55.172 11.1836C55.0696 11.2866 54.9919 11.4093 54.9442 11.5434C54.8966 11.6775 54.8801 11.8197 54.8959 11.9604V14.463H54.0047L54.0047 10.1852Z" fill="white"/>
<path d="M59.2596 8.51514H60.1508V14.4628H59.2596V8.51514Z" fill="white"/>
<path d="M61.3896 12.3222C61.3613 12.041 61.3952 11.7574 61.4894 11.4894C61.5835 11.2214 61.7357 10.975 61.9362 10.7661C62.1367 10.5571 62.3812 10.3901 62.6538 10.2758C62.9264 10.1616 63.2212 10.1025 63.5194 10.1025C63.8175 10.1025 64.1123 10.1616 64.385 10.2758C64.6576 10.3901 64.902 10.5571 65.1025 10.7661C65.3031 10.975 65.4553 11.2214 65.5494 11.4894C65.6435 11.7574 65.6775 12.041 65.6491 12.3222C65.678 12.6036 65.6444 12.8876 65.5505 13.156C65.4567 13.4244 65.3045 13.6713 65.104 13.8806C64.9034 14.09 64.6588 14.2573 64.3859 14.3719C64.113 14.4864 63.8178 14.5455 63.5194 14.5455C63.2209 14.5455 62.9257 14.4864 62.6528 14.3719C62.3799 14.2573 62.1353 14.09 61.9348 13.8806C61.7342 13.6713 61.5821 13.4244 61.4882 13.156C61.3943 12.8876 61.3607 12.6036 61.3896 12.3222ZM64.732 12.3222C64.732 11.3949 64.2923 10.8527 63.5206 10.8527C62.746 10.8527 62.3102 11.3949 62.3102 12.3222C62.3102 13.2569 62.746 13.795 63.5206 13.795C64.2923 13.795 64.732 13.2532 64.732 12.3222Z" fill="white"/>
<path d="M66.5873 13.2531C66.5873 12.4831 67.1925 12.0392 68.2668 11.9761L69.4899 11.9093V11.5401C69.4899 11.0883 69.1746 10.8331 68.5655 10.8331C68.068 10.8331 67.7233 11.0062 67.6244 11.3086H66.7616C66.8527 10.5738 67.5823 10.1025 68.6066 10.1025C69.7387 10.1025 70.3772 10.6364 70.3772 11.5401V14.4629H69.5193V13.8617H69.4488C69.3057 14.0774 69.1047 14.2532 68.8664 14.3712C68.6281 14.4892 68.3611 14.5451 68.0925 14.5334C67.9029 14.552 67.7113 14.5329 67.53 14.4771C67.3488 14.4214 67.1819 14.3302 67.04 14.2096C66.8982 14.089 66.7847 13.9416 66.7067 13.7768C66.6287 13.6121 66.588 13.4337 66.5873 13.2531ZM69.4899 12.8876V12.53L68.3872 12.5967C67.7654 12.6362 67.4833 12.8366 67.4833 13.2137C67.4833 13.5987 67.8359 13.8227 68.3207 13.8227C68.4627 13.8364 68.6062 13.8228 68.7426 13.7828C68.879 13.7428 69.0055 13.6772 69.1146 13.59C69.2237 13.5027 69.3131 13.3956 69.3776 13.2749C69.4421 13.1543 69.4803 13.0225 69.4899 12.8876Z" fill="white"/>
<path d="M71.5485 12.3221C71.5485 10.9704 72.282 10.1141 73.4228 10.1141C73.7051 10.1018 73.9851 10.1658 74.2303 10.2987C74.4756 10.4316 74.6758 10.6279 74.8076 10.8646H74.8742V8.51514H75.7653V14.4628H74.9114V13.787H74.8409C74.6989 14.0221 74.4917 14.2159 74.2417 14.3475C73.9918 14.479 73.7086 14.5433 73.4229 14.5333C72.2741 14.5334 71.5485 13.6771 71.5485 12.3221ZM72.469 12.3221C72.469 13.2294 72.9205 13.7754 73.6755 13.7754C74.4267 13.7754 74.8909 13.2216 74.8909 12.3258C74.8909 11.4343 74.4218 10.8725 73.6755 10.8725C72.9254 10.8725 72.469 11.4222 72.469 12.3221Z" fill="white"/>
<path d="M79.4524 12.3221C79.424 12.041 79.458 11.7573 79.5521 11.4894C79.6462 11.2214 79.7983 10.975 79.9988 10.766C80.1994 10.5571 80.4437 10.3901 80.7164 10.2758C80.989 10.1616 81.2838 10.1025 81.5819 10.1025C81.88 10.1025 82.1748 10.1616 82.4474 10.2758C82.72 10.3901 82.9644 10.5571 83.1649 10.766C83.3654 10.975 83.5176 11.2214 83.6117 11.4894C83.7058 11.7573 83.7398 12.041 83.7114 12.3221C83.7403 12.6035 83.7068 12.8875 83.6129 13.1559C83.5191 13.4243 83.367 13.6712 83.1664 13.8806C82.9659 14.09 82.7213 14.2573 82.4484 14.3718C82.1755 14.4863 81.8804 14.5455 81.5819 14.5455C81.2834 14.5455 80.9883 14.4863 80.7154 14.3718C80.4425 14.2573 80.1979 14.09 79.9974 13.8806C79.7968 13.6712 79.6447 13.4243 79.5509 13.1559C79.457 12.8875 79.4235 12.6035 79.4524 12.3221ZM82.7948 12.3221C82.7948 11.3948 82.355 10.8526 81.5834 10.8526C80.8087 10.8526 80.373 11.3948 80.373 12.3221C80.373 13.2568 80.8088 13.7949 81.5834 13.7949C82.3551 13.7949 82.7948 13.2531 82.7948 12.3221Z" fill="white"/>
<path d="M84.9071 10.1852H85.765V10.8647H85.8316C85.9445 10.6207 86.1351 10.4161 86.3766 10.2794C86.6182 10.1428 86.8987 10.081 87.1791 10.1026C87.3988 10.087 87.6194 10.1183 87.8246 10.1944C88.0298 10.2705 88.2142 10.3894 88.3643 10.5422C88.5144 10.695 88.6263 10.8778 88.6917 11.0771C88.7571 11.2765 88.7743 11.4872 88.7421 11.6937V14.4629H87.8509V11.9057C87.8509 11.2182 87.5356 10.8763 86.8765 10.8763C86.7273 10.8698 86.5784 10.8938 86.44 10.9468C86.3015 10.9999 86.1768 11.0807 86.0744 11.1836C85.972 11.2866 85.8943 11.4093 85.8466 11.5434C85.799 11.6775 85.7825 11.8197 85.7983 11.9604V14.463H84.9071V10.1852Z" fill="white"/>
<path d="M93.7777 9.12012V10.2046H94.756V10.9157H93.7777V13.1154C93.7777 13.5635 93.9726 13.7597 94.4162 13.7597C94.5298 13.7594 94.6432 13.7529 94.756 13.7402V14.4435C94.596 14.4706 94.4338 14.485 94.2713 14.4866C93.2802 14.4866 92.8856 14.1563 92.8856 13.3316V10.9157H92.1687V10.2046H92.8856V9.12012H93.7777Z" fill="white"/>
<path d="M95.9733 8.51514H96.8566V10.8725H96.9271C97.0456 10.6262 97.2413 10.4204 97.4877 10.2833C97.7341 10.1461 98.0191 10.0843 98.304 10.1062C98.5225 10.0949 98.741 10.1295 98.9439 10.2074C99.1467 10.2854 99.3289 10.4048 99.4775 10.5571C99.626 10.7094 99.7372 10.8909 99.8032 11.0886C99.8691 11.2864 99.8882 11.4955 99.8591 11.701V14.4628H98.967V11.9092C98.967 11.226 98.6311 10.8799 98.0014 10.8799C97.8483 10.868 97.6942 10.888 97.55 10.9384C97.4058 10.9888 97.275 11.0684 97.1667 11.1717C97.0584 11.275 96.9753 11.3995 96.9231 11.5364C96.8709 11.6733 96.8509 11.8194 96.8645 11.9644V14.4628H95.9733L95.9733 8.51514Z" fill="white"/>
<path d="M105.055 13.3079C104.934 13.6989 104.672 14.0371 104.314 14.2633C103.957 14.4896 103.526 14.5895 103.099 14.5455C102.801 14.553 102.506 14.499 102.232 14.3873C101.959 14.2757 101.715 14.109 101.516 13.8989C101.318 13.6889 101.17 13.4404 101.083 13.1708C100.996 12.9011 100.972 12.6168 101.013 12.3375C100.973 12.0574 100.998 11.7724 101.084 11.502C101.171 11.2316 101.318 10.9819 101.515 10.77C101.713 10.5581 101.956 10.3888 102.229 10.2737C102.501 10.1585 102.796 10.1002 103.095 10.1026C104.351 10.1026 105.109 10.9158 105.109 12.2591V12.5537H101.921V12.601C101.907 12.758 101.927 12.916 101.982 13.0649C102.036 13.2138 102.123 13.3504 102.236 13.4657C102.349 13.5811 102.486 13.6728 102.639 13.7349C102.792 13.7971 102.957 13.8283 103.123 13.8265C103.336 13.8507 103.552 13.8144 103.744 13.722C103.935 13.6297 104.093 13.4855 104.197 13.3079L105.055 13.3079ZM101.921 11.9293H104.201C104.213 11.7857 104.192 11.6415 104.141 11.506C104.09 11.3704 104.009 11.2464 103.905 11.1421C103.8 11.0377 103.673 10.9552 103.533 10.9C103.393 10.8447 103.242 10.8178 103.09 10.8211C102.936 10.8193 102.783 10.8467 102.64 10.9018C102.497 10.9568 102.368 11.0384 102.259 11.1417C102.15 11.2449 102.064 11.3678 102.006 11.5031C101.947 11.6384 101.919 11.7833 101.921 11.9293Z" fill="white"/>
</g>
<defs>
<clipPath id="clip0_1084_86">
<rect width="120" height="38" fill="white" transform="translate(0 0.5)"/>
</clipPath>
</defs>
</svg>
