<svg width="24" height="24" viewBox="0 0 24 24" fill="none" xmlns="http://www.w3.org/2000/svg">
<path d="M4.29356 8.27465C4.2005 8.36113 4.12668 8.46387 4.0763 8.57698C4.02593 8.69008 4 8.81134 4 8.9338C4 9.05625 4.02593 9.17751 4.0763 9.29062C4.12668 9.40372 4.2005 9.50646 4.29356 9.59294L10.9363 15.7822C11.0103 15.8512 11.0981 15.906 11.1948 15.9434C11.2915 15.9808 11.3952 16 11.4999 16C11.6046 16 11.7083 15.9808 11.805 15.9434C11.9017 15.906 11.9895 15.8512 12.0635 15.7822L18.7062 9.59294C19.0979 9.22799 19.0979 8.6396 18.7062 8.27465C18.3145 7.9097 17.683 7.9097 17.2913 8.27465L11.4959 13.667L5.70045 8.2672C5.31675 7.9097 4.67726 7.9097 4.29356 8.27465Z" fill="#666666"/>
</svg>
