<svg width="18" height="18" viewBox="0 0 18 18" fill="none" xmlns="http://www.w3.org/2000/svg">
<path d="M9 2C10.6563 2 12.1744 2.57974 13.3736 3.54427L11.9497 4.96823C11.1239 4.36165 10.1052 4 9 4C6.23873 4 4 6.23873 4 9C4 11.7613 6.23873 14 9 14C11.178 14 13.0235 12.6057 13.71 10.6669L13.9461 10H13.2386H9.5V8H15.25V8.03113H15.75H15.9318C15.9763 8.34836 16 8.67169 16 9C16 12.8657 12.8657 16 9 16C5.13427 16 2 12.8657 2 9C2 5.13427 5.13427 2 9 2Z" fill="#FFC107" stroke="#964900"/>
<path d="M2.36475 5.50913L4.82887 7.31625C5.49562 5.6655 7.11037 4.5 9 4.5C10.1471 4.5 11.1907 4.93275 11.9854 5.63963L14.1067 3.51825C12.7672 2.26988 10.9755 1.5 9 1.5C6.11925 1.5 3.621 3.12638 2.36475 5.50913Z" fill="#FF3D00"/>
<path d="M9.00012 16.5C10.9374 16.5 12.6976 15.7586 14.0285 14.553L11.7072 12.5888C10.9289 13.1807 9.97791 13.5008 9.00012 13.5C7.04937 13.5 5.39299 12.2561 4.76899 10.5203L2.32324 12.4046C3.56449 14.8335 6.08524 16.5 9.00012 16.5Z" fill="#4CAF50"/>
<path d="M16.3541 7.53113H15.75V7.5H9V10.5H13.2386C12.9428 11.3312 12.41 12.0574 11.706 12.5891L11.7071 12.5884L14.0284 14.5526C13.8641 14.7019 16.5 12.75 16.5 9C16.5 8.49713 16.4483 8.00625 16.3541 7.53113Z" fill="#1976D2"/>
</svg>
