<svg width="18" height="18" viewBox="0 0 18 18" fill="none" xmlns="http://www.w3.org/2000/svg">
<g clip-path="url(#clip0_1225_4523)">
<mask id="path-1-inside-1_1225_4523" fill="white">
<path d="M7.11675 0.00298242L7.6635 0.000732422H10.3365L10.884 0.00298242L11.5695 0.0104824L11.8942 0.0157324L12.2078 0.0239824L12.51 0.0344824L12.801 0.0464824L13.0815 0.0622324L13.3515 0.0809824L13.6102 0.103482L13.86 0.128232C15.165 0.275232 16.0597 0.590232 16.7347 1.26523C17.4097 1.94023 17.7248 2.83423 17.8717 4.13998L17.8973 4.38973L17.919 4.64923L17.9377 4.91923L17.9528 5.19898L17.9715 5.63998L17.9805 5.94748L17.9902 6.43048L17.997 7.11673L18 7.85173L17.9993 10.3365L17.997 10.884L17.9895 11.5695L17.9842 11.8942L17.976 12.2077L17.9655 12.51L17.9535 12.801L17.9377 13.0815L17.919 13.3515L17.8965 13.6102L17.8717 13.86C17.7248 15.165 17.4097 16.0597 16.7347 16.7347C16.0597 17.4097 15.1657 17.7247 13.86 17.8717L13.6102 17.8972L13.3507 17.919L13.0807 17.9377L12.801 17.9527L12.36 17.9715L12.0525 17.9805L11.5695 17.9902L10.8832 17.997L10.1483 18L7.6635 17.9992L7.116 17.997L6.4305 17.9895L6.10575 17.9842L5.79225 17.976L5.49 17.9655L5.199 17.9535L4.9185 17.9377L4.6485 17.919L4.38975 17.8965L4.14 17.8717C2.835 17.7247 1.94025 17.4097 1.26525 16.7347C0.59025 16.0597 0.27525 15.1657 0.12825 13.86L0.10275 13.6102L0.081 13.3507L0.06225 13.0807L0.04725 12.801L0.0285 12.36L0.0195 12.0525L0.00975 11.5695L0.003 10.8832L0 10.1482L0.00075 7.66348L0.003 7.11598L0.0105 6.43048L0.01575 6.10573L0.024 5.79223L0.0345 5.48998L0.0465 5.19898L0.06225 4.91848L0.081 4.64848L0.1035 4.38973L0.12825 4.13998C0.27525 2.83498 0.59025 1.94023 1.26525 1.26523C1.94025 0.590232 2.83425 0.275232 4.14 0.128232L4.38975 0.102732L4.64925 0.0809824L4.91925 0.0622324L5.199 0.0472324L5.64 0.0284824L5.9475 0.0194824L6.4305 0.00973242L7.11675 0.00298242ZM5.0925 5.47498H3.0375C3.135 10.155 5.475 12.9675 9.5775 12.9675H9.81V10.29C11.3175 10.44 12.4575 11.5425 12.915 12.9675H15.045C14.46 10.8375 12.9225 9.65998 11.9625 9.20998C12.9225 8.65498 14.2725 7.30498 14.595 5.47498H12.66C12.24 6.95998 10.995 8.30998 9.81 8.43748V5.47498H7.875V10.665C6.675 10.365 5.16 8.90998 5.0925 5.47498Z"/>
</mask>
<path d="M7.11675 0.00298242L7.6635 0.000732422H10.3365L10.884 0.00298242L11.5695 0.0104824L11.8942 0.0157324L12.2078 0.0239824L12.51 0.0344824L12.801 0.0464824L13.0815 0.0622324L13.3515 0.0809824L13.6102 0.103482L13.86 0.128232C15.165 0.275232 16.0597 0.590232 16.7347 1.26523C17.4097 1.94023 17.7248 2.83423 17.8717 4.13998L17.8973 4.38973L17.919 4.64923L17.9377 4.91923L17.9528 5.19898L17.9715 5.63998L17.9805 5.94748L17.9902 6.43048L17.997 7.11673L18 7.85173L17.9993 10.3365L17.997 10.884L17.9895 11.5695L17.9842 11.8942L17.976 12.2077L17.9655 12.51L17.9535 12.801L17.9377 13.0815L17.919 13.3515L17.8965 13.6102L17.8717 13.86C17.7248 15.165 17.4097 16.0597 16.7347 16.7347C16.0597 17.4097 15.1657 17.7247 13.86 17.8717L13.6102 17.8972L13.3507 17.919L13.0807 17.9377L12.801 17.9527L12.36 17.9715L12.0525 17.9805L11.5695 17.9902L10.8832 17.997L10.1483 18L7.6635 17.9992L7.116 17.997L6.4305 17.9895L6.10575 17.9842L5.79225 17.976L5.49 17.9655L5.199 17.9535L4.9185 17.9377L4.6485 17.919L4.38975 17.8965L4.14 17.8717C2.835 17.7247 1.94025 17.4097 1.26525 16.7347C0.59025 16.0597 0.27525 15.1657 0.12825 13.86L0.10275 13.6102L0.081 13.3507L0.06225 13.0807L0.04725 12.801L0.0285 12.36L0.0195 12.0525L0.00975 11.5695L0.003 10.8832L0 10.1482L0.00075 7.66348L0.003 7.11598L0.0105 6.43048L0.01575 6.10573L0.024 5.79223L0.0345 5.48998L0.0465 5.19898L0.06225 4.91848L0.081 4.64848L0.1035 4.38973L0.12825 4.13998C0.27525 2.83498 0.59025 1.94023 1.26525 1.26523C1.94025 0.590232 2.83425 0.275232 4.14 0.128232L4.38975 0.102732L4.64925 0.0809824L4.91925 0.0622324L5.199 0.0472324L5.64 0.0284824L5.9475 0.0194824L6.4305 0.00973242L7.11675 0.00298242ZM5.0925 5.47498H3.0375C3.135 10.155 5.475 12.9675 9.5775 12.9675H9.81V10.29C11.3175 10.44 12.4575 11.5425 12.915 12.9675H15.045C14.46 10.8375 12.9225 9.65998 11.9625 9.20998C12.9225 8.65498 14.2725 7.30498 14.595 5.47498H12.66C12.24 6.95998 10.995 8.30998 9.81 8.43748V5.47498H7.875V10.665C6.675 10.365 5.16 8.90998 5.0925 5.47498Z" fill="#201A18" stroke="#964900" stroke-width="2" mask="url(#path-1-inside-1_1225_4523)"/>
</g>
<defs>
<clipPath id="clip0_1225_4523">
<rect width="18" height="18" fill="white"/>
</clipPath>
</defs>
</svg>
